<?xml version="1.0" encoding="UTF-8" standalone="no"?>
<!-- Created with Inkscape (http://www.inkscape.org/) -->

<svg
   xmlns:dc="http://purl.org/dc/elements/1.1/"
   xmlns:cc="http://creativecommons.org/ns#"
   xmlns:rdf="http://www.w3.org/1999/02/22-rdf-syntax-ns#"
   xmlns:svg="http://www.w3.org/2000/svg"
   xmlns="http://www.w3.org/2000/svg"
   xmlns:xlink="http://www.w3.org/1999/xlink"
   xmlns:sodipodi="http://sodipodi.sourceforge.net/DTD/sodipodi-0.dtd"
   xmlns:inkscape="http://www.inkscape.org/namespaces/inkscape"
   width="100"
   height="100"
   id="svg3050"
   version="1.1"
   inkscape:version="0.48.3.1 r9886"
   sodipodi:docname="contig.svg">
  <defs
     id="defs3052" />
  <sodipodi:namedview
     id="base"
     pagecolor="#ffffff"
     bordercolor="#666666"
     borderopacity="1.0"
     inkscape:pageopacity="0.0"
     inkscape:pageshadow="2"
     inkscape:zoom="1.375"
     inkscape:cx="215.2599"
     inkscape:cy="25.890148"
     inkscape:current-layer="layer1"
     showgrid="true"
     inkscape:document-units="px"
     inkscape:grid-bbox="true"
     inkscape:window-width="1177"
     inkscape:window-height="646"
     inkscape:window-x="287"
     inkscape:window-y="122"
     inkscape:window-maximized="0" />
  <metadata
     id="metadata3055">
    <rdf:RDF>
      <cc:Work
         rdf:about="">
        <dc:format>image/svg+xml</dc:format>
        <dc:type
           rdf:resource="http://purl.org/dc/dcmitype/StillImage" />
        <dc:title></dc:title>
      </cc:Work>
    </rdf:RDF>
  </metadata>
  <g
     inkscape:groupmode="layer"
     id="layer4"
     inkscape:label="BG" />
  <g
     id="layer1"
     inkscape:label="Layer 1"
     inkscape:groupmode="layer"
     transform="translate(0,36)">
    <path
       sodipodi:type="arc"
       style="fill:#ffffff;stroke:#000000;stroke-width:0.99971478999999996;stroke-linecap:butt;stroke-linejoin:miter;stroke-opacity:1;stroke-miterlimit:4;stroke-dasharray:none;fill-opacity:1"
       id="path3897"
       sodipodi:cx="32.090908"
       sodipodi:cy="32.090908"
       sodipodi:rx="32.090908"
       sodipodi:ry="32.090908"
       d="m 64.181816,32.090908 c 0,17.723319 -14.367589,32.090908 -32.090908,32.090908 C 14.367589,64.181816 0,49.814227 0,32.090908 0,14.367589 14.367589,0 32.090908,0 49.814227,0 64.181816,14.367589 64.181816,32.090908 z"
       transform="matrix(1.5304365,0,0,1.5304365,0.99249097,-34.855049)" />
    <g
       transform="matrix(0.33309079,0,0,0.33309079,15.501516,-22.411974)"
       id="g3220">
      <title
         id="title3222">Layer 1</title>
      <path
         style="opacity:0.75;fill:#873c02;stroke-width:0;stroke-linecap:square"
         inkscape:connector-curvature="0"
         d="m 3.6768,153.26508 c 26.074039,14.61593 59.096649,13.79922 84.944736,0 2.136711,-1.28885 -28.238926,-4.63352 -42.612965,-4.63352 -25.685232,0 -42.798972,2.55238 -42.331772,4.63352 z"
         id="path5582" />
      <path
         style="opacity:0.75;fill:#873c02;stroke-width:0;stroke-linecap:square"
         inkscape:connector-curvature="0"
         id="path4189"
         d="m 64.550323,189.22707 c 0,0 -0.236526,-4.01597 5.884506,-4.10279 6.121033,-0.0868 59.625791,0 63.619641,0 3.99387,0 4.98891,2.73227 4.9542,4.12101 -0.0846,3.41291 -27.60576,10.52664 -27.61503,10.37844 l -36.465708,-2.92218 c -3.459206,-2.4915 -8.357292,-2.44098 -10.377609,-7.47448 z" />
      <path
         style="opacity:0.75;fill:#873c02;stroke-width:0;stroke-linecap:square"
         inkscape:connector-curvature="0"
         id="path2220"
         d="m 64.575348,188.75641 0,7.80386 c -0.263268,8.23377 74.426972,8.64012 74.408572,0 l 0,-7.80386 c 0.0712,8.68602 -74.559253,8.69948 -74.408572,0 z" />
      <path
         style="opacity:0.75;fill:#873c02;stroke-width:0;stroke-linecap:square"
         inkscape:connector-curvature="0"
         id="path5269"
         d="m 69.432762,183.39714 c 0.09847,-1.42255 10.074615,-5.11098 31.325898,-5.11098 21.36623,0 33.36719,2.93636 33.36719,5.21842 0,0.55253 -6.56906,5.03425 -6.56906,5.03425 l -27.47346,2.63991 -30.23617,-4.91147 -0.414398,-2.87013 z" />
      <path
         style="opacity:0.75;fill:#873c02;stroke-width:0;stroke-linecap:square"
         inkscape:connector-curvature="0"
         d="m 69.443153,183.19972 0,5.66052 c 0.118469,5.19094 64.688297,5.9198 64.672307,0 l 0,-5.66052 c -0.0249,5.60581 -64.629613,5.52876 -64.672307,0 z"
         id="path5263" />
      <path
         style="opacity:0.75;fill:#873c02;stroke-width:0;stroke-linecap:square"
         inkscape:connector-curvature="0"
         d="m 116.2962,183.76668 c 0,0 -9.12989,-0.96105 -11.29223,-2.4026 -2.16234,-1.44156 -1.68182,-1.5617 -3.90421,-1.5617 -2.222409,0 -1.741887,0.12014 -3.904225,1.5617 -2.162331,1.44155 -11.292221,2.4026 -11.292221,2.4026"
         id="path5271" />
      <path
         style="opacity:0.75;fill:#873c02;stroke-width:0;stroke-linecap:square"
         inkscape:connector-curvature="0"
         id="path5293"
         d="m 93.929817,175.2252 15.697113,0.0239 c 0.11574,0.61305 -5.00444,5.12314 -6.67019,5.0352 l -3.215758,-0.0192 c -1.889641,0.0595 -5.828766,-4.78706 -5.811165,-5.03986 z" />
      <g
         style="opacity:0.75"
         transform="matrix(0.96104,0,0,0.96104,5.90997,4.0595)"
         id="g5493">
        <path
           style="fill:#873c02;stroke-width:0;stroke-linecap:square"
           inkscape:connector-curvature="0"
           d="m 99.521446,19.373159 c -0.263878,0 -0.530609,0.01207 -0.78125,0.03125 -0.297989,0.0228 -0.57016,0.07758 -0.84375,0.125 -1.631538,0.28277 -2.78125,0.958111 -2.78125,1.78125 l 0,4.34375 c -4.935898,-2.86236 -11.037796,-4.40625 -15.40625,-4.40625 -5.833626,0 -8.871223,0.688271 -15.874996,4.5625 -5.823769,3.221491 -7.434139,4.602631 -11.5,3.71875 -4.065861,-0.88389 -6.003681,-2.980389 -8.125,-3.6875 -2.121311,-0.707109 -5.300468,1.57163 -5.5,2.25 -0.220982,0.751301 -0.916981,-0.188419 -1.09375,-0.71875 -0.176788,-0.530329 -4.176781,1.742041 -4,3.15625 0.176769,1.414211 3.616219,5.290052 4.125,3.625002 0.486149,-1.590992 1.162529,-1.743721 1.78125,-1.125 0.625011,0.625 2.927689,1.90012 3.28125,4.375 0.35355,2.474869 -0.897369,3.175858 -1.78125,2.46875 -0.883881,-0.707111 -1.229481,-1.042892 -1.40625,-1.75 -0.176769,-0.707111 -3.874081,1.063419 -3.34375,1.59375 0.530331,0.530327 1.575062,3.8652 2.8125,4.21875 1.237431,0.35355 1.25,1.949139 1.25,2.65625 0,0.707108 2.125,0.551769 2.125,0.375 0,-0.176781 0.15625,-2.5 0.15625,-2.5 0,0 4.083019,-0.342232 3.90625,-5.46875 -0.176781,-5.126522 -3.018688,-6.70895 -1.78125,-7.062502 1.237438,-0.35355 7.415451,2.823221 12.71875,3.000002 5.303299,0.176777 12.48531,-5.125002 22.031246,-5.125002 7.083031,0 13.01947,3.292669 15.625,5.000002 l 0,1.71875 c 0,0.823139 1.149712,1.498478 2.78125,1.78125 0.27359,0.04742 0.545761,0.1022 0.84375,0.125 0.250641,0.01918 0.517372,0.03125 0.78125,0.03125 0.04187,5e-4 0.08284,0 0.125,0 l 0.21875,0 c 0.340544,0 0.681344,2.98e-4 1.000004,-0.03125 2.01496,-0.179382 3.53125,-0.963631 3.53125,-1.90625 l 0,-1.71875 c 2.60553,-1.707333 8.54196,-5.000002 15.625,-5.000002 9.54593,0 16.72795,5.301779 22.03125,5.125002 5.3033,-0.176781 11.48131,-3.353552 12.71875,-3.000002 1.23745,0.353552 -1.60447,1.93598 -1.78125,7.062502 -0.17677,5.126518 3.90625,5.46875 3.90625,5.46875 0,0 0.15625,2.323219 0.15625,2.5 0,0.176769 2.125,0.332108 2.125,-0.375 0,-0.707111 0.0126,-2.3027 1.25,-2.65625 1.23745,-0.35355 2.28217,-3.688423 2.8125,-4.21875 0.53032,-0.530331 -3.16697,-2.300861 -3.34375,-1.59375 -0.17677,0.707108 -0.52237,1.042889 -1.40625,1.75 -0.88388,0.707108 -2.13481,0.0061 -1.78125,-2.46875 0.35357,-2.47488 2.65624,-3.75 3.28125,-4.375 0.61872,-0.618721 1.26384,-0.465992 1.75,1.125 0.50878,1.665051 3.97948,-2.210791 4.15625,-3.625002 0.17678,-1.414209 -3.82321,-3.686579 -4,-3.15625 -0.17677,0.530331 -0.87277,1.470051 -1.09375,0.71875 -0.19953,-0.67837 -3.37869,-2.957109 -5.5,-2.25 -2.12132,0.707111 -4.05914,2.80361 -8.125,3.6875 -4.06585,0.883881 -5.67624,-0.497259 -11.5,-3.71875 -7.00377,-3.874229 -10.07262,-4.5625 -15.90625,-4.5625 -4.36845,0 -10.4391,1.54389 -15.375,4.40625 l 0,-4.34375 c 0,-0.942619 -1.51629,-1.72687 -3.53125,-1.90625 -0.0308,-0.0027 -0.0627,0.0025 -0.0937,0 -0.24893,-0.0221 -0.51912,-0.02808 -0.781254,-0.03125 l -0.125,0 -0.34375,0 z"
           id="rect5433" />
        <path
           style="fill:#873c02;stroke-width:0;stroke-linecap:square"
           inkscape:connector-curvature="0"
           d="m 41.895618,28.39488 c 0,0 6.805901,3.712309 13.523411,3.712309 6.717522,0 14.495697,-6.540739 23.511314,-6.540739 7.78093,0 14.617493,4.69812 18.581619,7.172998"
           id="path5473" />
        <use
           style="fill:#873c02;stroke-width:0;stroke-linecap:square"
           x="0"
           y="0"
           xlink:href="#path5473"
           id="use5491"
           transform="matrix(-1,0,0,1,199.512,5.0894e-7)"
           width="204"
           height="208" />
      </g>
      <path
         style="opacity:0.75;fill:#873c02;stroke-width:0;stroke-linecap:square"
         inkscape:connector-curvature="0"
         id="path5460"
         d="m 98.466469,23.147011 0,-3.436321 c 2.387891,-1.03838 4.238381,-2.314829 6.625691,0 l 0,3.101521 -6.625691,0.334801 z" />
      <path
         style="opacity:0.75;fill:#873c02;stroke-width:0;stroke-linecap:square"
         inkscape:connector-curvature="0"
         id="path5471"
         d="m 101.54551,22.33811 c -0.26325,0 -0.52933,0.01203 -0.77938,0.03114 -0.29726,0.02273 -0.56877,0.07732 -0.841723,0.12458 -1.627602,0.28182 -2.774536,0.954891 -2.774536,1.775249 l 0,4.329111 0,9.125401 0,1.712959 c 0,0.820358 1.146935,1.49342 2.774536,1.775238 0.272953,0.04726 0.544463,0.10186 0.841723,0.12458 0.25005,0.01912 0.51613,0.03115 0.77938,0.03115 0.0418,5e-4 0.0826,0 0.12469,0 l 0.21822,0 c 0.33972,0 0.6797,3.01e-4 0.9976,-0.03115 2.0101,-0.178768 3.52274,-0.960388 3.52274,-1.899818 l 0,-1.712959 0,-9.125401 0,-4.329111 c 0,-0.93944 -1.51264,-1.721048 -3.52274,-1.89983 -0.0307,-0.0027 -0.0626,0.0025 -0.0935,0 -0.24834,-0.02202 -0.51788,-0.02798 -0.77938,-0.03114 l -0.1247,0 -0.34291,0 z" />
      <path
         style="opacity:0.75;fill:#873c02;stroke-width:0;stroke-linecap:square"
         inkscape:connector-curvature="0"
         id="path5400"
         d="m 97.765671,175.40314 0,-130.792541 8.027279,-0.04438 -0.0425,131.724571 -7.984809,-0.88765 z" />
      <use
         style="opacity:0.75;fill:#873c02;stroke-width:0;stroke-linecap:square"
         height="208"
         width="204"
         transform="matrix(1,0,0,-1,0,350.452)"
         id="use5398"
         xlink:href="#path5293"
         y="0"
         x="0" />
      <path
         style="opacity:0.75;fill:#873c02;stroke-width:0;stroke-linecap:square"
         inkscape:connector-curvature="0"
         id="path5424"
         d="m 97.574547,44.753708 8.409523,0 c 0,0 -1.51506,-2.26963 -4.3154,-2.26963 -2.800353,0 -4.094123,2.157391 -4.094123,2.26963 z" />
      <use
         style="opacity:0.75;fill:#873c02;stroke-width:0;stroke-linecap:square"
         height="208"
         width="204"
         transform="matrix(1,0,0,1.06307,0,-7.42759)"
         id="use5426"
         xlink:href="#path5424"
         y="0"
         x="0" />
      <use
         style="opacity:0.75;fill:#873c02;stroke-width:0;stroke-linecap:square"
         height="208"
         width="204"
         transform="matrix(1,0,0,-1,0,85.1257)"
         id="use5428"
         xlink:href="#use5426"
         y="0"
         x="0" />
      <path
         style="opacity:0.75;fill:#873c02;stroke-width:0;stroke-linecap:square"
         inkscape:connector-curvature="0"
         id="path5455"
         d="m 99.47184,14.61637 0,2.55276 c 0,0 -0.159058,0.08179 -0.180199,0.0901 -0.0058,0.0023 -0.05274,-0.0029 -0.06006,0 -0.98967,0.175581 -2.375229,0.520639 -2.823059,1.021101 -0.179497,0.2006 -0.132286,0.335649 0,0.510559 0.263969,0.34901 2.587807,1.441561 5.195618,1.441561 0.0485,0 0.10109,0.0011 0.15017,0 0.059,0.0017 0.12204,0 0.18019,0 2.60782,0 4.92452,-1.09244 5.19562,-1.441561 0.21525,-0.277199 0.14859,-0.327311 0,-0.510559 -0.28077,-0.34626 -1.83998,-0.84761 -2.82305,-1.021101 -0.004,-0.0015 -0.0267,0.0013 -0.03,0 -0.0271,-0.01069 -0.21022,-0.0901 -0.21022,-0.0901 l 0,-2.55276 -0.33036,0 -3.904221,0 -0.36039,0 z" />
      <path
         style="opacity:0.75;fill:#873c02;stroke-width:0;stroke-linecap:square"
         inkscape:connector-curvature="0"
         d="m 107.31949,10.596252 a 5.5405355,5.5405355 0 1 1 -11.081071,0 5.5405355,5.5405355 0 1 1 11.081071,0 z"
         id="path5437" />
      <path
         style="opacity:0.75;fill:#873c02;stroke-width:0;stroke-linecap:square"
         inkscape:connector-curvature="0"
         id="path5502"
         d="m 157.00024,42.411011 c -0.18341,1.62175 -0.21643,3.243507 0,4.865269 0,0 -3.06331,-0.04273 -3.06331,0.660709 0,0.703442 0.3835,13.441761 -0.72077,14.715931 -1.10428,1.27417 -1.80285,1.009911 -2.3125,0.33036 -0.50966,-0.679562 -2.0225,-0.58004 -2.19239,-0.240261 -0.16987,0.339771 -0.54245,2.422585 0.54061,3.123367 1.51117,0.977837 5.27627,0.949707 5.61606,-2.702915 0.33978,-3.652622 0.32997,-6.787342 1.74189,-6.787342 0.50968,0 0.48052,1.740261 0.48052,3.694 0,1.95372 -0.17078,2.458389 -0.51055,2.88311 -0.33979,0.424721 -0.25483,4.504883 0,4.504883 0.25483,0 2.29792,0 2.55275,0 0.25484,0 0.33979,-4.080151 0,-4.504883 -0.33978,-0.424721 -0.51054,-0.92939 -0.51054,-2.88311 0,-1.953739 -0.23938,-3.694 0.27029,-3.694 1.53203,0 1.34203,2.804359 1.68183,6.456982 0.33976,3.65263 3.8571,3.748028 5.556,3.153416 1.6989,-0.59462 0.87442,-3.046246 0.72078,-3.393677 -0.22995,-0.51997 -1.23221,-0.0789 -1.862,0.300331 -0.72773,0.43819 -1.4485,0.94381 -2.55278,-0.33036 -1.10428,-1.27417 -1.2013,-13.92239 -1.2013,-14.625832 0,-0.703438 -2.79303,-0.660709 -2.79303,-0.660709 -0.0706,-1.621761 -0.29928,-3.243519 0,-4.865269 -0.73005,0.399288 -1.10582,0.231659 -1.44156,0 z m 0.78086,5.856339 c 0.81526,0 1.47159,0.143589 1.47159,0.33036 l 0,2.282471 c 0,0.18676 -0.65633,0.330349 -1.47159,0.330349 -0.81526,0 -1.47161,-0.143589 -1.47161,-0.330349 l 0,-2.282471 c 0,-0.186771 0.65635,-0.33036 1.47161,-0.33036 z" />
      <path
         style="opacity:0.75;fill:#873c02;stroke-width:0;stroke-linecap:square"
         inkscape:connector-curvature="0"
         d="m 115.99836,153.26508 c 26.07404,14.61593 59.09666,13.79922 84.94474,0 2.1367,-1.28885 -28.23892,-4.63352 -42.61298,-4.63352 -25.68522,0 -42.79896,2.55238 -42.33176,4.63352 z"
         id="path5566" />
      <path
         style="opacity:0.75;fill:#873c02;stroke-width:0;stroke-linecap:square"
         inkscape:connector-curvature="0"
         d="m 158.32283,63.107471 c 1.50465,6.884678 -1.28249,4.114704 -1.3815,5.446514 l -0.15016,94.961735"
         id="use5532" />
      <use
         style="opacity:0.75;fill:#873c02;stroke-width:0;stroke-linecap:square"
         height="208"
         width="204"
         transform="matrix(-1,0,0,1,315.813,0)"
         id="use5572"
         xlink:href="#use5570"
         y="0"
         x="0" />
      <use
         style="opacity:0.75;fill:#873c02;stroke-width:0;stroke-linecap:square"
         height="208"
         width="204"
         transform="matrix(-1,0,0,1,203.568,0)"
         id="use5512"
         xlink:href="#path5502"
         y="0"
         x="0" />
      <path
         style="opacity:0.75;fill:#873c02;stroke-width:0;stroke-linecap:square"
         inkscape:connector-curvature="0"
         id="path5536"
         d="m 115.99836,153.16533 c 28.45251,12.57725 59.09666,10.06164 84.94474,0 -0.58151,2.93716 -15.18256,20.95712 -43.63231,20.9561 -28.06311,-0.001 -41.31243,-18.91742 -41.31243,-20.9561 z" />
      <path
         style="opacity:0.75;fill:#873c02;stroke-width:0;stroke-linecap:square"
         inkscape:connector-curvature="0"
         d="m 45.352711,62.774139 c -1.504662,6.884674 1.28249,4.1147 1.3815,5.44651 l 0.150158,94.961741"
         id="path5578" />
      <use
         style="opacity:0.75;fill:#873c02;stroke-width:0;stroke-linecap:square"
         height="208"
         width="204"
         transform="matrix(-1,0,0,1,203.491,0)"
         id="use5580"
         xlink:href="#use5570"
         y="0"
         x="0" />
      <path
         style="opacity:0.75;fill:#873c02;stroke-width:0;stroke-linecap:square"
         inkscape:connector-curvature="0"
         id="path5586"
         d="m 4.010133,153.16534 c 28.452498,12.57726 59.096648,10.06165 84.944739,0 -0.581512,2.93717 -15.182556,20.95713 -43.632309,20.9561 -28.063108,-0.001 -41.31243,-18.91742 -41.31243,-20.9561 z" />
      <path
         style="opacity:0.75;fill:#873c02;stroke-width:0;stroke-linecap:square"
         inkscape:connector-curvature="0"
         id="svg_1"
         d="m 45.154549,41.810753 c -0.183411,1.62175 -0.216431,3.243507 0,4.865269 0,0 -3.063309,-0.04273 -3.063309,0.660709 0,0.703442 0.383499,13.441765 -0.720779,14.715935 -1.104279,1.27417 -1.802841,1.009911 -2.3125,0.33036 -0.509659,-0.679565 -2.022491,-0.58004 -2.192383,-0.240265 -0.169876,0.339775 -0.54245,2.422585 0.540604,3.123367 1.511169,0.977837 5.276276,0.949707 5.616058,-2.702911 0.339783,-3.652626 0.329971,-6.787346 1.741898,-6.787346 0.509674,0 0.480515,1.740261 0.480515,3.694 0,1.95372 -0.170776,2.458389 -0.510544,2.88311 -0.339798,0.424721 -0.254837,4.504883 0,4.504883 0.254822,0 2.297913,0 2.55275,0 0.254837,0 0.339783,-4.080147 0,-4.504883 -0.339783,-0.424721 -0.510544,-0.92939 -0.510544,-2.88311 0,-1.953739 -0.23938,-3.694 0.270294,-3.694 1.532028,0 1.342026,2.804359 1.681824,6.456985 0.339767,3.652626 3.857101,3.748024 5.556,3.153412 1.698898,-0.59462 0.87442,-3.046242 0.720779,-3.393677 -0.22995,-0.519966 -1.232208,-0.0789 -1.862,0.300331 -0.727722,0.438194 -1.448502,0.94381 -2.55278,-0.33036 -1.104279,-1.27417 -1.201294,-13.92239 -1.201294,-14.625832 0,-0.703438 -2.79303,-0.660709 -2.79303,-0.660709 -0.07065,-1.621761 -0.299286,-3.243519 0,-4.865269 -0.730057,0.399288 -1.10582,0.231659 -1.441559,0 z m 0.780853,5.856339 c 0.815262,0 1.471588,0.143589 1.471588,0.33036 l 0,2.282471 c 0,0.18676 -0.656326,0.330349 -1.471588,0.330349 -0.815262,0 -1.471603,-0.143589 -1.471603,-0.330349 l 0,-2.282471 c 0,-0.186771 0.656342,-0.33036 1.471603,-0.33036 z" />
      <path
         style="opacity:0.75;fill:#873c02;stroke-width:0;stroke-linecap:square"
         inkscape:connector-curvature="0"
         transform="matrix(0.93969262,0.34202014,-0.34202014,0.93969262,38.399195,-1.1046542)"
         id="svg_2"
         d="m 21.79023,58.128963 c -1.504662,6.884678 1.28249,4.1147 1.3815,5.44651 l 0.150158,94.961737" />
      <path
         style="opacity:0.75;fill:#873c02;stroke-width:0;stroke-linecap:square"
         inkscape:connector-curvature="0"
         id="svg_3"
         transform="matrix(0.93969262,0.34202014,-0.34202014,0.93969262,45.497449,-39.512858)"
         d="m 134.24922,59.0541 c -1.50465,6.884674 1.28249,4.1147 1.3815,5.44651 l 0.15016,94.96175" />
      <path
         style="opacity:0.75;fill:#873c02;stroke-width:0;stroke-linecap:square"
         inkscape:connector-curvature="0"
         transform="matrix(0.93969262,-0.34202014,0.34202014,0.93969262,-33.012069,29.963256)"
         id="svg_4"
         d="m 67.915894,58.387424 c -1.504662,6.884693 1.282494,4.1147 1.3815,5.446518 l 0.150162,94.961738" />
      <path
         style="opacity:0.75;fill:#873c02;stroke-width:0;stroke-linecap:square"
         inkscape:connector-curvature="0"
         id="svg_5"
         transform="matrix(0.93969262,-0.34202014,0.34202014,0.93969262,-26.383015,68.526486)"
         d="m 180.58127,58.871803 c -1.50466,6.884697 1.28248,4.1147 1.3815,5.446518 l 0.15016,94.961739" />
    </g>
  </g>
</svg>
