<?xml version="1.0" encoding="UTF-8" standalone="no"?>
<!-- Created with Inkscape (http://www.inkscape.org/) -->

<svg
   xmlns:dc="http://purl.org/dc/elements/1.1/"
   xmlns:cc="http://creativecommons.org/ns#"
   xmlns:rdf="http://www.w3.org/1999/02/22-rdf-syntax-ns#"
   xmlns:svg="http://www.w3.org/2000/svg"
   xmlns="http://www.w3.org/2000/svg"
   xmlns:sodipodi="http://sodipodi.sourceforge.net/DTD/sodipodi-0.dtd"
   xmlns:inkscape="http://www.inkscape.org/namespaces/inkscape"
   width="100"
   height="100"
   id="svg3050"
   version="1.1"
   inkscape:version="0.48.3.1 r9886"
   sodipodi:docname="scaf.svg">
  <defs
     id="defs3052" />
  <sodipodi:namedview
     id="base"
     pagecolor="#ffffff"
     bordercolor="#666666"
     borderopacity="1.0"
     inkscape:pageopacity="0.0"
     inkscape:pageshadow="2"
     inkscape:zoom="3.8890872"
     inkscape:cx="140.44111"
     inkscape:cy="7.957445"
     inkscape:current-layer="layer1"
     showgrid="true"
     inkscape:document-units="px"
     inkscape:grid-bbox="true"
     inkscape:window-width="1600"
     inkscape:window-height="876"
     inkscape:window-x="0"
     inkscape:window-y="24"
     inkscape:window-maximized="1" />
  <metadata
     id="metadata3055">
    <rdf:RDF>
      <cc:Work
         rdf:about="">
        <dc:format>image/svg+xml</dc:format>
        <dc:type
           rdf:resource="http://purl.org/dc/dcmitype/StillImage" />
        <dc:title />
      </cc:Work>
    </rdf:RDF>
  </metadata>
  <g
     inkscape:groupmode="layer"
     id="layer2"
     inkscape:label="Layer" />
  <g
     inkscape:groupmode="layer"
     id="layer3"
     inkscape:label="BG" />
  <g
     id="layer1"
     inkscape:label="Layer 1"
     inkscape:groupmode="layer"
     transform="translate(0,36)">
    <path
       sodipodi:type="arc"
       style="fill:#ffffff;stroke:#000000;stroke-width:0.99971478999999996;stroke-linecap:butt;stroke-linejoin:miter;stroke-opacity:1;stroke-miterlimit:4;stroke-dasharray:none;fill-opacity:1"
       id="path3897"
       sodipodi:cx="32.090908"
       sodipodi:cy="32.090908"
       sodipodi:rx="32.090908"
       sodipodi:ry="32.090908"
       d="m 64.181816,32.090908 c 0,17.723319 -14.367589,32.090908 -32.090908,32.090908 C 14.367589,64.181816 0,49.814227 0,32.090908 0,14.367589 14.367589,0 32.090908,0 49.814227,0 64.181816,14.367589 64.181816,32.090908 z"
       transform="matrix(1.5304365,0,0,1.5304365,0.99249097,-34.855049)" />
    <g
       id="g7930">
      <path
         transform="translate(0,-36)"
         inkscape:connector-curvature="0"
         id="path4905"
         d="m 69.1679,24.403857 0.771389,51.425948 -0.25713,-0.51426"
         style="fill:none;stroke:#000000;stroke-width:1px;stroke-linecap:butt;stroke-linejoin:miter;stroke-opacity:1" />
      <path
         transform="translate(0,-36)"
         inkscape:connector-curvature="0"
         id="path4907"
         d="M 27.512882,34.431917 60.682618,32.117749"
         style="fill:none;stroke:#000000;stroke-width:1px;stroke-linecap:butt;stroke-linejoin:miter;stroke-opacity:1" />
      <path
         transform="translate(0,-36)"
         inkscape:connector-curvature="0"
         id="path4909"
         d="m 60.168359,22.089689 0,55.025764"
         style="fill:#5e6c5e;stroke:#000000;stroke-width:1px;stroke-linecap:butt;stroke-linejoin:miter;stroke-opacity:1;fill-opacity:0.83561641" />
      <path
         transform="translate(0,-36)"
         inkscape:connector-curvature="0"
         id="path4911"
         d="m 60.682618,32.117749 8.999541,1.285649"
         style="fill:none;stroke:#000000;stroke-width:1px;stroke-linecap:butt;stroke-linejoin:miter;stroke-opacity:1" />
      <path
         transform="translate(0,-36)"
         inkscape:connector-curvature="0"
         id="path4913"
         d="m 60.168359,44.459976 10.02806,0.51426"
         style="fill:none;stroke:#000000;stroke-width:1px;stroke-linecap:butt;stroke-linejoin:miter;stroke-opacity:1" />
      <path
         transform="translate(0,-36)"
         inkscape:connector-curvature="0"
         id="path4917"
         d="M 69.682159,66.573134 37.798072,62.973318"
         style="fill:none;stroke:#000000;stroke-width:1px;stroke-linecap:butt;stroke-linejoin:miter;stroke-opacity:1" />
      <path
         inkscape:connector-curvature="0"
         id="path4919"
         d="m 43.126269,-7.867762 0.25713,46.026223"
         style="fill:none;stroke:#000000;stroke-width:1px;stroke-linecap:butt;stroke-linejoin:miter;stroke-opacity:1" />
      <path
         transform="translate(0,-36)"
         inkscape:connector-curvature="0"
         id="path4921"
         d="m 69.425029,66.573134 -8.99954,2.571297 -33.169737,-5.399724"
         style="fill:none;stroke:#000000;stroke-width:1px;stroke-linecap:butt;stroke-linejoin:miter;stroke-opacity:1" />
      <path
         transform="translate(0,-36)"
         inkscape:connector-curvature="0"
         id="path4923"
         d="m 26.998623,26.975154 0,43.454926"
         style="fill:none;stroke:#000000;stroke-width:1px;stroke-linecap:butt;stroke-linejoin:miter;stroke-opacity:1" />
      <path
         inkscape:connector-curvature="0"
         id="path4925"
         d="m 26.627188,18.230907 33.541171,0.514259"
         style="fill:none;stroke:#000000;stroke-width:1.02154601px;stroke-linecap:butt;stroke-linejoin:miter;stroke-opacity:1" />
      <path
         transform="translate(0,-36)"
         inkscape:connector-curvature="0"
         id="path4927"
         d="m 27.512882,43.945717 33.426866,0.25713"
         style="fill:none;stroke:#000000;stroke-width:1px;stroke-linecap:butt;stroke-linejoin:miter;stroke-opacity:1" />
      <path
         inkscape:connector-curvature="0"
         id="path4929"
         d="m 38.055201,0.38170923 0,26.11185877"
         style="fill:none;stroke:#000000;stroke-width:0.84865892px;stroke-linecap:butt;stroke-linejoin:miter;stroke-opacity:1" />
      <path
         inkscape:connector-curvature="0"
         id="path4931"
         d="m 26.627188,-1.053824 14.51357,1.542779"
         style="fill:none;stroke:#000000;stroke-width:1.04185987px;stroke-linecap:butt;stroke-linejoin:miter;stroke-opacity:1" />
      <path
         inkscape:connector-curvature="0"
         id="path4937"
         d="M 59.665795,18.79027 70.184723,18.042748"
         style="fill:none;stroke:#000000;stroke-width:1px;stroke-linecap:butt;stroke-linejoin:miter;stroke-opacity:1" />
      <path
         inkscape:connector-curvature="0"
         id="path4939"
         d="M 52.711596,-1.0578672 53.482985,29.33814"
         style="fill:none;stroke:#000000;stroke-width:0.83635134px;stroke-linecap:butt;stroke-linejoin:miter;stroke-opacity:1" />
      <path
         transform="translate(0,-36)"
         inkscape:connector-curvature="0"
         id="path4941"
         d="M 40.883628,36.488955 69.939289,33.403398"
         style="fill:none;stroke:#000000;stroke-width:1px;stroke-linecap:butt;stroke-linejoin:miter;stroke-opacity:1" />
      <path
         inkscape:connector-curvature="0"
         id="path4943"
         d="M 26.98877,27.406376 38.440896,26.79739"
         style="fill:none;stroke:#000000;stroke-width:1.16174257px;stroke-linecap:butt;stroke-linejoin:miter;stroke-opacity:1" />
      <path
         transform="translate(0,-36)"
         inkscape:connector-curvature="0"
         id="path4957"
         d="m 53.225856,68.115912 0,3.085557"
         style="fill:none;stroke:#000000;stroke-width:1px;stroke-linecap:butt;stroke-linejoin:miter;stroke-opacity:1" />
      <path
         transform="translate(0,-36)"
         inkscape:connector-curvature="0"
         id="path4959"
         d="m 37.926636,33.146268 0,-2.956992 0,0"
         style="fill:none;stroke:#000000;stroke-width:1px;stroke-linecap:butt;stroke-linejoin:miter;stroke-opacity:1" />
      <path
         transform="translate(0,-36)"
         inkscape:connector-curvature="0"
         id="path4961"
         d="m 52.727273,32.272727 0,-2.636363"
         style="fill:none;stroke:#000000;stroke-width:1px;stroke-linecap:butt;stroke-linejoin:miter;stroke-opacity:1" />
      <path
         transform="translate(0,-36)"
         inkscape:connector-curvature="0"
         id="path4963"
         d="m 35.646935,35.348817 c -2.659715,-0.289021 -4.88214,-0.540923 -4.938722,-0.559784 -0.05658,-0.01886 2.467275,-0.208584 5.608572,-0.421608 3.141297,-0.213023 5.844404,-0.408159 6.006904,-0.433636 l 0.295454,-0.04632 0,0.945519 0,0.945519 -0.613636,0.05795 c -0.958905,0.09056 -1.226398,0.07005 -6.358572,-0.487643 l 0,0 z"
         style="fill:#999999;fill-opacity:1;stroke:#000000;stroke-width:0.13909091;stroke-miterlimit:4;stroke-opacity:1;stroke-dasharray:none" />
      <path
         transform="translate(0,-36)"
         inkscape:connector-curvature="0"
         id="path4965"
         d="m 43.710052,34.713889 0,-0.909091 0.290532,0 c 0.349371,0 14.460004,-0.971792 15.141287,-1.042772 l 0.477272,-0.04973 0,0.637158 c 0,0.518824 -0.02655,0.637158 -0.14296,0.637158 -0.07863,0 -3.609787,0.368182 -7.847019,0.818182 -4.237233,0.45 -7.752446,0.818182 -7.811585,0.818182 -0.07559,0 -0.107527,-0.269976 -0.107527,-0.909091 z"
         style="fill:#999999;fill-opacity:1;stroke:#000000;stroke-width:0.13909091;stroke-miterlimit:4;stroke-opacity:1;stroke-dasharray:none" />
      <path
         transform="translate(0,-36)"
         inkscape:connector-curvature="0"
         id="path4967"
         d="m 60.710053,33.259343 c 0,-0.662177 -0.229935,-0.64055 2.5,-0.235138 1.511816,0.224514 1.922334,0.311592 1.681818,0.356743 -0.353012,0.06627 -3.734819,0.42385 -4.008549,0.42385 -0.151168,0 -0.173269,-0.06958 -0.173269,-0.545455 z"
         style="fill:#999999;fill-opacity:1;stroke:#000000;stroke-width:0.13909091;stroke-miterlimit:4;stroke-opacity:1;stroke-dasharray:none" />
      <path
         transform="translate(0,-36)"
         inkscape:connector-curvature="0"
         id="path4969"
         d="M 51.592605,67.169311 C 47.403009,66.481303 43.954814,65.898044 43.92995,65.87318 43.90509,65.84831 43.89657,65.464002 43.91103,65.01915 l 0.02629,-0.808822 4.5,0.527743 c 2.475,0.290259 4.929546,0.564658 5.454546,0.609776 0.882587,0.07585 4.450626,0.474577 5.340909,0.596847 l 0.386363,0.05306 0,1.221702 c 0,1.209445 -0.0021,1.221597 -0.204545,1.211239 -0.1125,-0.0058 -3.632396,-0.573379 -7.821993,-1.261387 z"
         style="fill:#999999;fill-opacity:1;stroke:#000000;stroke-width:0.13909091;stroke-miterlimit:4;stroke-opacity:1;stroke-dasharray:none" />
      <path
         transform="translate(0,-36)"
         inkscape:connector-curvature="0"
         id="path4971"
         d="m 36.875105,64.773589 c -3.084221,-0.50606 -5.596934,-0.930849 -5.583806,-0.943977 0.04653,-0.04653 6.336311,-0.369278 6.489918,-0.333021 0.13412,0.03166 4.833616,0.580934 4.970351,0.580934 0.02717,0 0.04939,0.368182 0.04939,0.818182 0,0.722461 -0.01861,0.817001 -0.159091,0.808086 -0.0875,-0.0056 -2.682545,-0.424145 -5.766766,-0.930204 z"
         style="fill:#999999;fill-opacity:1;stroke:#000000;stroke-width:0.13909091;stroke-miterlimit:4;stroke-opacity:1;stroke-dasharray:none" />
      <path
         transform="translate(0,-36)"
         inkscape:connector-curvature="0"
         id="path4973"
         d="m 60.710053,67.253217 c 0,-1.087545 0.01344,-1.184222 0.15909,-1.143907 0.0875,0.02422 1.395248,0.179683 2.906106,0.345474 1.510858,0.165792 2.717677,0.328307 2.681818,0.361146 -0.07031,0.06439 -5.500607,1.625231 -5.654318,1.625231 -0.05826,0 -0.0927,-0.441313 -0.0927,-1.187944 z"
         style="fill:#999999;fill-opacity:1;stroke:#000000;stroke-width:0.13909091;stroke-miterlimit:4;stroke-opacity:1;stroke-dasharray:none" />
      <rect
         transform="matrix(0.72067998,-0.69326789,0.61977865,0.78477667,0,0)"
         y="38.00547"
         x="5.1830211"
         height="2.228246"
         width="43.773495"
         id="rect4980"
         style="fill:#999999;fill-opacity:1;stroke:#000000;stroke-width:0.51838052;stroke-miterlimit:4;stroke-opacity:1;stroke-dasharray:none" />
      <rect
         transform="matrix(0.64827437,0.76140681,-0.83819087,0.54537699,0,0)"
         y="-23.847078"
         x="15.47572"
         height="2.0014899"
         width="45.714901"
         id="rect4980-1"
         style="fill:#999999;fill-opacity:1;stroke:#000000;stroke-width:0.50207328;stroke-miterlimit:4;stroke-opacity:1;stroke-dasharray:none" />
      <rect
         y="40.601196"
         x="59.018406"
         height="1.0285189"
         width="2.6927319"
         id="rect5022"
         style="fill:#5e6c5e;fill-opacity:0.83561641;stroke:#000000;stroke-width:0.3924334;stroke-miterlimit:4;stroke-opacity:1;stroke-dasharray:none" />
      <rect
         y="39.186977"
         x="68.267944"
         height="1.0285189"
         width="2.6215649"
         id="rect5024"
         style="fill:#5e6c5e;fill-opacity:0.83561641;stroke:#000000;stroke-width:0.41221949;stroke-miterlimit:4;stroke-opacity:1;stroke-dasharray:none" />
      <rect
         y="34.430077"
         x="51.811646"
         height="1.2856487"
         width="2.5641675"
         id="rect5026"
         style="fill:#5e6c5e;fill-opacity:0.83561641;stroke:#000000;stroke-width:0.39473629;stroke-miterlimit:4;stroke-opacity:1;stroke-dasharray:none" />
      <rect
         y="37.258507"
         x="41.655018"
         height="1.2856487"
         width="3.0380461"
         id="rect5028"
         style="fill:#5e6c5e;fill-opacity:0.83561641;stroke:#000000;stroke-width:0.40509304;stroke-miterlimit:4;stroke-opacity:1;stroke-dasharray:none" />
      <rect
         y="33.144428"
         x="25.327278"
         height="1.2856487"
         width="2.8212972"
         id="rect5030"
         style="fill:#5e6c5e;fill-opacity:0.83561641;stroke:#000000;stroke-width:0.4016926;stroke-miterlimit:4;stroke-opacity:1;stroke-dasharray:none" />
    </g>
  </g>
</svg>
