<?xml version="1.0"?><svg width="204" height="208" xmlns="http://www.w3.org/2000/svg" xmlns:xlink="http://www.w3.org/1999/xlink">
 <title>scale brown</title>
 <metadata id="metadata2216">image/svg+xml</metadata>

 <g>
  <title>Layer 1</title>
  <path opacity="0.75" stroke-linecap="square" stroke-width="0" fill="#873c02" d="m3.6768,153.265076c26.074039,14.615936 59.096649,13.799225 84.944736,0c2.136711,-1.288849 -28.238926,-4.633514 -42.612965,-4.633514c-25.685232,0 -42.798972,2.552383 -42.331772,4.633514z" id="path5582"/>
  <path opacity="0.75" stroke-linecap="square" stroke-width="0" fill="#873c02" id="path4189" d="m64.550323,189.227066c0,0 -0.236526,-4.015961 5.884506,-4.102783c6.121033,-0.086838 59.625793,0 63.619644,0c3.993866,0 4.988907,2.732269 4.954193,4.121002c-0.084564,3.412918 -27.605759,10.526642 -27.615028,10.378448l-36.465706,-2.92218c-3.459206,-2.491501 -8.357292,-2.440979 -10.377609,-7.474487z"/>
  <path opacity="0.75" stroke-linecap="square" stroke-width="0" fill="#873c02" id="path2220" d="m64.575348,188.756409l0,7.803864c-0.263268,8.233765 74.426971,8.640121 74.408569,0l0,-7.803864c0.071228,8.68602 -74.55925,8.699478 -74.408569,0z"/>
  <path opacity="0.75" stroke-linecap="square" stroke-width="0" fill="#873c02" id="path5269" d="m69.432762,183.397141c0.098465,-1.422546 10.074615,-5.110977 31.325897,-5.110977c21.366234,0 33.367195,2.936356 33.367195,5.218414c0,0.552536 -6.569061,5.034256 -6.569061,5.034256l-27.473465,2.639908l-30.236168,-4.911469l-0.414398,-2.870132z"/>
  <path opacity="0.75" stroke-linecap="square" stroke-width="0" fill="#873c02" d="m69.443153,183.199722l0,5.660522c0.118469,5.190933 64.688301,5.9198 64.67231,0l0,-5.660522c-0.024918,5.605804 -64.629616,5.528763 -64.67231,0z" id="path5263"/>
  <path opacity="0.75" stroke-linecap="square" stroke-width="0" fill="#873c02" d="m116.296204,183.766678c0,0 -9.12989,-0.961044 -11.292236,-2.402603c-2.162338,-1.441559 -1.681816,-1.561691 -3.904205,-1.561691c-2.222412,0 -1.74189,0.120132 -3.904228,1.561691c-2.162331,1.441559 -11.292221,2.402603 -11.292221,2.402603" id="path5271"/>
  <path opacity="0.75" stroke-linecap="square" stroke-width="0" fill="#873c02" id="path5293" d="m93.929817,175.225204l15.697113,0.023865c0.115738,0.613052 -5.00444,5.123138 -6.670189,5.035202l-3.215759,-0.019211c-1.889641,0.059464 -5.828766,-4.787064 -5.811165,-5.039856z"/>
  <g opacity="0.75" transform="matrix(0.96104, 0, 0, 0.96104, 5.90997, 4.0595)" id="g5493">
   <path stroke-linecap="square" stroke-width="0" fill="#873c02" d="m99.521446,19.373159c-0.263878,0 -0.530609,0.01207 -0.78125,0.03125c-0.297989,0.0228 -0.57016,0.077581 -0.84375,0.125c-1.631538,0.28277 -2.78125,0.958111 -2.78125,1.78125l0,4.34375c-4.935898,-2.86236 -11.037796,-4.40625 -15.40625,-4.40625c-5.833626,0 -8.871223,0.688271 -15.874996,4.5625c-5.823769,3.221491 -7.434139,4.602631 -11.5,3.71875c-4.065861,-0.88389 -6.003681,-2.980389 -8.125,-3.6875c-2.121311,-0.707109 -5.300468,1.57163 -5.5,2.25c-0.220982,0.751301 -0.916981,-0.188419 -1.09375,-0.71875c-0.176788,-0.530329 -4.176781,1.742041 -4,3.15625c0.176769,1.414211 3.616219,5.290052 4.125,3.625002c0.486149,-1.590992 1.162529,-1.743721 1.78125,-1.125c0.625011,0.625 2.927689,1.90012 3.28125,4.375c0.35355,2.474869 -0.897369,3.175858 -1.78125,2.46875c-0.883881,-0.707111 -1.229481,-1.042892 -1.40625,-1.75c-0.176769,-0.707111 -3.874081,1.063419 -3.34375,1.59375c0.530331,0.530327 1.575062,3.8652 2.8125,4.21875c1.237431,0.35355 1.25,1.949139 1.25,2.65625c0,0.707108 2.125,0.551769 2.125,0.375c0,-0.176781 0.15625,-2.5 0.15625,-2.5c0,0 4.083019,-0.342232 3.90625,-5.46875c-0.176781,-5.126522 -3.018688,-6.70895 -1.78125,-7.062502c1.237438,-0.35355 7.415451,2.823221 12.71875,3.000002c5.303299,0.176777 12.48531,-5.125002 22.031246,-5.125002c7.083031,0 13.01947,3.292669 15.625,5.000002l0,1.71875c0,0.823139 1.149712,1.498478 2.78125,1.78125c0.27359,0.047421 0.545761,0.1022 0.84375,0.125c0.250641,0.01918 0.517372,0.03125 0.78125,0.03125c0.04187,0.0005 0.08284,0 0.125,0l0.21875,0c0.340546,0 0.681343,0.000298 1,-0.03125c2.014961,-0.179382 3.53125,-0.963631 3.53125,-1.90625l0,-1.71875c2.605537,-1.707333 8.541962,-5.000002 15.625,-5.000002c9.545937,0 16.727959,5.301779 22.031258,5.125002c5.303299,-0.176781 11.481308,-3.353552 12.71875,-3.000002c1.237442,0.353552 -1.604477,1.93598 -1.78125,7.062502c-0.176773,5.126518 3.90625,5.46875 3.90625,5.46875c0,0 0.15625,2.323219 0.15625,2.5c0,0.176769 2.125,0.332108 2.125,-0.375c0,-0.707111 0.012573,-2.3027 1.25,-2.65625c1.237442,-0.35355 2.282166,-3.688423 2.8125,-4.21875c0.530319,-0.530331 -3.166977,-2.300861 -3.34375,-1.59375c-0.176773,0.707108 -0.522369,1.042889 -1.40625,1.75c-0.883881,0.707108 -2.134811,0.006119 -1.78125,-2.46875c0.353561,-2.47488 2.656235,-3.75 3.28125,-4.375c0.618713,-0.618721 1.26384,-0.465992 1.75,1.125c0.508774,1.665051 3.979477,-2.210791 4.15625,-3.625002c0.176773,-1.414209 -3.823212,-3.686579 -4,-3.15625c-0.176773,0.530331 -0.872772,1.470051 -1.09375,0.71875c-0.199539,-0.67837 -3.378693,-2.957109 -5.5,-2.25c-2.121323,0.707111 -4.059143,2.80361 -8.125,3.6875c-4.065857,0.883881 -5.676239,-0.497259 -11.5,-3.71875c-7.003769,-3.874229 -10.072624,-4.5625 -15.906258,-4.5625c-4.368446,0 -10.439095,1.54389 -15.375,4.40625l0,-4.34375c0,-0.942619 -1.516289,-1.72687 -3.53125,-1.90625c-0.0308,-0.002739 -0.062706,0.00246 -0.09375,0c-0.248924,-0.022099 -0.519119,-0.02808 -0.78125,-0.03125l-0.125,0l-0.34375,0z" id="rect5433"/>
   <path stroke-linecap="square" stroke-width="0" fill="#873c02" d="m41.895618,28.39488c0,0 6.805901,3.712309 13.523411,3.712309c6.717522,0 14.495697,-6.540739 23.511314,-6.540739c7.78093,0 14.617493,4.69812 18.581619,7.172998" id="path5473"/>
   <use stroke-linecap="square" stroke-width="0" fill="#873c02" x="0" y="0" xlink:href="#path5473" id="use5491" transform="matrix(-1, 0, 0, 1, 199.512, 5.0894e-07)" width="204" height="208"/>
  </g>
  <path opacity="0.75" stroke-linecap="square" stroke-width="0" fill="#873c02" id="path5460" d="m98.466469,23.147011l0,-3.436321c2.387894,-1.03838 4.23838,-2.314829 6.625694,0l0,3.101521l-6.625694,0.334801z"/>
  <path stroke-linecap="square" stroke-width="0" fill="#873c02" opacity="0.75" id="path5471" d="m101.545509,22.33811c-0.263252,0 -0.529327,0.01203 -0.779381,0.031139c-0.297256,0.02273 -0.568771,0.07732 -0.841721,0.12458c-1.627602,0.28182 -2.774536,0.954891 -2.774536,1.775249l0,4.329111l0,9.125401l0,1.712959c0,0.820358 1.146935,1.49342 2.774536,1.775238c0.272949,0.04726 0.544464,0.10186 0.841721,0.12458c0.250053,0.019123 0.516129,0.031151 0.779381,0.031151c0.041771,0.0005 0.082634,0 0.124687,0l0.218224,0c0.339722,0 0.679703,0.000301 0.997597,-0.031151c2.010101,-0.178768 3.522743,-0.960388 3.522743,-1.899818l0,-1.712959l0,-9.125401l0,-4.329111c0,-0.93944 -1.512642,-1.721048 -3.522743,-1.89983c-0.030724,-0.002729 -0.062553,0.002451 -0.093513,0c-0.248344,-0.022018 -0.517883,-0.027979 -0.779381,-0.031139l-0.124702,0l-0.342911,0z"/>
  <path opacity="0.75" stroke-linecap="square" stroke-width="0" fill="#873c02" id="path5400" d="m97.765671,175.403137l0,-130.792538l8.027283,-0.04438l-0.042473,131.724567l-7.98481,-0.88765z"/>
  <use opacity="0.75" stroke-linecap="square" stroke-width="0" fill="#873c02" height="208" width="204" transform="matrix(1, 0, 0, -1, 0, 350.452)" id="use5398" xlink:href="#path5293" y="0" x="0"/>
  <path opacity="0.75" stroke-linecap="square" stroke-width="0" fill="#873c02" id="path5424" d="m97.574547,44.753708l8.409523,0c0,0 -1.51506,-2.26963 -4.315399,-2.26963c-2.800354,0 -4.094124,2.157391 -4.094124,2.26963z"/>
  <use opacity="0.75" stroke-linecap="square" stroke-width="0" fill="#873c02" height="208" width="204" transform="matrix(1, 0, 0, 1.06307, 0, -7.42759)" id="use5426" xlink:href="#path5424" y="0" x="0"/>
  <use opacity="0.75" stroke-linecap="square" stroke-width="0" fill="#873c02" height="208" width="204" transform="matrix(1, 0, 0, -1, 0, 85.1257)" id="use5428" xlink:href="#use5426" y="0" x="0"/>
  <path opacity="0.75" stroke-linecap="square" stroke-width="0" fill="#873c02" id="path5455" d="m99.47184,14.61637l0,2.55276c0,0 -0.159058,0.081789 -0.180199,0.090099c-0.005844,0.0023 -0.052742,-0.00289 -0.060059,0c-0.98967,0.175581 -2.375229,0.520639 -2.823059,1.021101c-0.179497,0.2006 -0.132286,0.335649 0,0.510559c0.263969,0.34901 2.587807,1.441561 5.195618,1.441561c0.048462,0 0.101089,0.00115 0.150169,0c0.059029,0.00165 0.12204,0 0.180191,0c2.607819,0 4.924515,-1.09244 5.195618,-1.441561c0.215248,-0.277199 0.14859,-0.327311 0,-0.510559c-0.280769,-0.34626 -1.839981,-0.84761 -2.823051,-1.021101c-0.003654,-0.00145 -0.026741,0.001301 -0.030037,0c-0.02713,-0.010689 -0.21022,-0.090099 -0.21022,-0.090099l0,-2.55276l-0.33036,0l-3.904221,0l-0.36039,0z"/>
  <path stroke-linecap="square" stroke-width="0" fill="#873c02" opacity="0.75" d="m107.319489,10.596252a5.540535,5.540535 0 1 1 -11.08107,0a5.540535,5.540535 0 1 1 11.08107,0z" id="path5437"/>
  <path opacity="0.75" stroke-linecap="square" stroke-width="0" fill="#873c02" id="path5502" d="m157.000244,42.411011c-0.183411,1.62175 -0.216431,3.243507 0,4.865269c0,0 -3.063309,-0.042728 -3.063309,0.660709c0,0.703442 0.383499,13.441761 -0.720779,14.715931c-1.104279,1.27417 -1.802841,1.009911 -2.3125,0.33036c-0.509659,-0.679562 -2.022491,-0.58004 -2.192383,-0.240261c-0.169876,0.339771 -0.54245,2.422585 0.540604,3.123367c1.511169,0.977837 5.276276,0.949707 5.616058,-2.702915c0.339783,-3.652622 0.329971,-6.787342 1.741898,-6.787342c0.509674,0 0.480515,1.740261 0.480515,3.694c0,1.95372 -0.170776,2.458389 -0.510544,2.88311c-0.339798,0.424721 -0.254837,4.504883 0,4.504883c0.254822,0 2.297913,0 2.55275,0c0.254837,0 0.339783,-4.080151 0,-4.504883c-0.339783,-0.424721 -0.510544,-0.92939 -0.510544,-2.88311c0,-1.953739 -0.23938,-3.694 0.270294,-3.694c1.532028,0 1.342026,2.804359 1.681824,6.456982c0.339767,3.65263 3.857101,3.748028 5.556,3.153416c1.698898,-0.59462 0.87442,-3.046246 0.720779,-3.393677c-0.22995,-0.51997 -1.232208,-0.078899 -1.862,0.300331c-0.727722,0.43819 -1.448502,0.94381 -2.55278,-0.33036c-1.104279,-1.27417 -1.201294,-13.92239 -1.201294,-14.625832c0,-0.703438 -2.79303,-0.660709 -2.79303,-0.660709c-0.070648,-1.621761 -0.299286,-3.243519 0,-4.865269c-0.730057,0.399288 -1.10582,0.231659 -1.441559,0zm0.780853,5.856339c0.815262,0 1.471588,0.143589 1.471588,0.33036l0,2.282471c0,0.18676 -0.656326,0.330349 -1.471588,0.330349c-0.815262,0 -1.471603,-0.143589 -1.471603,-0.330349l0,-2.282471c0,-0.186771 0.656342,-0.33036 1.471603,-0.33036z"/>
  <path opacity="0.75" stroke-linecap="square" stroke-width="0" fill="#873c02" d="m115.99836,153.265076c26.074043,14.615936 59.096657,13.799225 84.94474,0c2.136703,-1.288849 -28.238922,-4.633514 -42.612976,-4.633514c-25.685226,0 -42.798965,2.552383 -42.331764,4.633514z" id="path5566"/>
  <path opacity="0.75" stroke-linecap="square" stroke-width="0" fill="#873c02" d="m158.32283,63.107471c1.504654,6.884678 -1.282486,4.114704 -1.3815,5.446514l-0.150162,94.961731" id="use5532"/>
  <use opacity="0.75" stroke-linecap="square" stroke-width="0" fill="#873c02" height="208" width="204" transform="matrix(-1, 0, 0, 1, 315.813, 0)" id="use5572" xlink:href="#use5570" y="0" x="0"/>
  <use opacity="0.75" stroke-linecap="square" stroke-width="0" fill="#873c02" height="208" width="204" transform="matrix(-1, 0, 0, 1, 203.568, 0)" id="use5512" xlink:href="#path5502" y="0" x="0"/>
  <path opacity="0.75" stroke-linecap="square" stroke-width="0" fill="#873c02" id="path5536" d="m115.99836,153.165329c28.452507,12.577255 59.096657,10.061646 84.94474,0c-0.581512,2.937164 -15.182556,20.957123 -43.632309,20.9561c-28.06311,-0.001007 -41.312431,-18.917419 -41.312431,-20.9561z"/>
  <path opacity="0.75" stroke-linecap="square" stroke-width="0" fill="#873c02" d="m45.352711,62.774139c-1.504662,6.884674 1.28249,4.1147 1.3815,5.44651l0.150158,94.961739" id="path5578"/>
  <use opacity="0.75" stroke-linecap="square" stroke-width="0" fill="#873c02" height="208" width="204" transform="matrix(-1, 0, 0, 1, 203.491, 0)" id="use5580" xlink:href="#use5570" y="0" x="0"/>
  <path opacity="0.75" stroke-linecap="square" stroke-width="0" fill="#873c02" id="path5586" d="m4.010133,153.165344c28.452498,12.577255 59.096648,10.061646 84.944739,0c-0.581512,2.937164 -15.182556,20.957123 -43.632309,20.9561c-28.063108,-0.001007 -41.31243,-18.917419 -41.31243,-20.9561z"/>
  <path opacity="0.75" stroke-linecap="square" stroke-width="0" id="svg_1" fill="#873c02" d="m45.154549,41.810753c-0.183411,1.62175 -0.216431,3.243507 0,4.865269c0,0 -3.063309,-0.042728 -3.063309,0.660709c0,0.703442 0.383499,13.441765 -0.720779,14.715935c-1.104279,1.27417 -1.802841,1.009911 -2.3125,0.33036c-0.509659,-0.679565 -2.022491,-0.58004 -2.192383,-0.240265c-0.169876,0.339775 -0.54245,2.422585 0.540604,3.123367c1.511169,0.977837 5.276276,0.949707 5.616058,-2.702911c0.339783,-3.652626 0.329971,-6.787346 1.741898,-6.787346c0.509674,0 0.480515,1.740261 0.480515,3.694c0,1.95372 -0.170776,2.458389 -0.510544,2.88311c-0.339798,0.424721 -0.254837,4.504883 0,4.504883c0.254822,0 2.297913,0 2.55275,0c0.254837,0 0.339783,-4.080147 0,-4.504883c-0.339783,-0.424721 -0.510544,-0.92939 -0.510544,-2.88311c0,-1.953739 -0.23938,-3.694 0.270294,-3.694c1.532028,0 1.342026,2.804359 1.681824,6.456985c0.339767,3.652626 3.857101,3.748024 5.556,3.153412c1.698898,-0.59462 0.87442,-3.046242 0.720779,-3.393677c-0.22995,-0.519966 -1.232208,-0.078896 -1.862,0.300331c-0.727722,0.438194 -1.448502,0.94381 -2.55278,-0.33036c-1.104279,-1.27417 -1.201294,-13.92239 -1.201294,-14.625832c0,-0.703438 -2.79303,-0.660709 -2.79303,-0.660709c-0.070648,-1.621761 -0.299286,-3.243519 0,-4.865269c-0.730057,0.399288 -1.10582,0.231659 -1.441559,0zm0.780853,5.856339c0.815262,0 1.471588,0.143589 1.471588,0.33036l0,2.282471c0,0.18676 -0.656326,0.330349 -1.471588,0.330349c-0.815262,0 -1.471603,-0.143589 -1.471603,-0.330349l0,-2.282471c0,-0.186771 0.656342,-0.33036 1.471603,-0.33036z"/>
  <path opacity="0.75" stroke-linecap="square" stroke-width="0" transform="rotate(20, 22.332, 108.334)" id="svg_2" fill="#873c02" d="m21.79023,58.128963c-1.504662,6.884678 1.28249,4.1147 1.3815,5.44651l0.150158,94.961742"/>
  <path opacity="0.75" stroke-linecap="square" stroke-width="0" id="svg_3" transform="rotate(20, 134.793, 109.258)" fill="#873c02" d="m134.249222,59.0541c-1.504654,6.884674 1.282486,4.1147 1.3815,5.44651l0.150162,94.961746"/>
  <path opacity="0.75" stroke-linecap="square" stroke-width="0" transform="rotate(-20, 68.459, 108.592)" id="svg_4" fill="#873c02" d="m67.915894,58.387424c-1.504662,6.884693 1.282494,4.1147 1.3815,5.446518l0.150162,94.961742"/>
  <path opacity="0.75" stroke-linecap="square" stroke-width="0" id="svg_5" transform="rotate(-20, 181.125, 109.076)" fill="#873c02" d="m180.581268,58.871803c-1.504654,6.884697 1.282486,4.1147 1.3815,5.446518l0.150162,94.961739"/>
 </g>
</svg>