<?xml version="1.0" encoding="UTF-8" standalone="no"?>
<!-- Created with Inkscape (http://www.inkscape.org/) -->
<svg xmlns:dc="http://purl.org/dc/elements/1.1/" xmlns:cc="http://web.resource.org/cc/" xmlns:rdf="http://www.w3.org/1999/02/22-rdf-syntax-ns#" xmlns:svg="http://www.w3.org/2000/svg" xmlns="http://www.w3.org/2000/svg" xmlns:sodipodi="http://sodipodi.sourceforge.net/DTD/sodipodi-0.dtd" xmlns:inkscape="http://www.inkscape.org/namespaces/inkscape" width="817.53003" height="817.53101" id="svg2" sodipodi:version="0.32" inkscape:version="0.45.1" version="1.0" sodipodi:docbase="/home/scott/roadgeek" sodipodi:docname="Merge_sign.svg" inkscape:output_extension="org.inkscape.output.svg.inkscape">
  <defs id="defs4"/>
  <sodipodi:namedview id="base" pagecolor="#ffffff" bordercolor="#666666" borderopacity="1.0" gridtolerance="10000" guidetolerance="10" objecttolerance="10" inkscape:pageopacity="0.0" inkscape:pageshadow="2" inkscape:zoom="2.8284271" inkscape:cx="538.41395" inkscape:cy="304.27925" inkscape:document-units="px" inkscape:current-layer="layer1" width="600px" height="600px" units="px" inkscape:window-width="1226" inkscape:window-height="730" inkscape:window-x="0" inkscape:window-y="0" showguides="true" inkscape:guide-bbox="true">
    <sodipodi:guide orientation="vertical" position="408.47614" id="guide12492"/>
    <sodipodi:guide orientation="horizontal" position="406.97852" id="guide12494"/>
    <sodipodi:guide orientation="vertical" position="972.33046" id="guide12502"/>
  </sodipodi:namedview>
  <metadata id="metadata7">
    <rdf:RDF>
      <cc:Work rdf:about="">
        <dc:format>image/svg+xml</dc:format>
        <dc:type rdf:resource="http://purl.org/dc/dcmitype/StillImage"/>
      </cc:Work>
    </rdf:RDF>
  </metadata>
  <g inkscape:label="Layer 1" inkscape:groupmode="layer" id="layer1">
    <path style="color:black;fill:#f7d117;fill-opacity:1;fill-rule:nonzero;stroke:none;stroke-width:0.8735441;stroke-linecap:butt;stroke-linejoin:miter;stroke-miterlimit:4;stroke-dashoffset:0;stroke-opacity:1;marker:none;marker-start:none;marker-mid:none;marker-end:none;visibility:visible;display:inline;overflow:visible" d="M -262.50039,278.08163 L 262.49977,278.08163 C 283.27478,278.08163 299.99979,294.80664 299.99979,315.58165 L 299.99979,840.58181 C 299.99979,861.35681 283.27478,878.08182 262.49977,878.08182 L -262.50039,878.08182 C -283.27539,878.08182 -300.0004,861.35681 -300.0004,840.58181 L -300.0004,315.58165 C -300.0004,294.80664 -283.27539,278.08163 -262.50039,278.08163 z " id="rect2777" transform="matrix(0.707107,-0.707107,0.707107,0.707107,0,0)"/>
    <path transform="matrix(0.707107,-0.707107,0.707107,0.707107,0,0)" style="color:black;fill:black;fill-opacity:1;fill-rule:nonzero;stroke:none;stroke-width:0.8735441;stroke-linecap:butt;stroke-linejoin:miter;stroke-miterlimit:4;stroke-dashoffset:0;stroke-opacity:1;marker:none;marker-start:none;marker-mid:none;marker-end:none;visibility:visible;display:inline;overflow:visible" d="M -262.51244,287.45663 L 262.48772,287.45663 C 278.06898,287.45663 290.61273,300.00039 290.61273,315.58164 L 290.61273,840.58181 C 290.61273,856.16306 278.06898,868.70682 262.48772,868.70682 L -262.51244,868.70682 C -278.0937,868.70682 -290.63745,856.16306 -290.63745,840.58181 L -290.63745,315.58164 C -290.63745,300.00039 -278.0937,287.45663 -262.51244,287.45663 z " id="rect4551"/>
    <path transform="matrix(0.707107,-0.707107,0.707107,0.707107,0,0)" style="color:black;fill:#f7d117;fill-opacity:1;fill-rule:nonzero;stroke:none;stroke-width:0.8735441;stroke-linecap:butt;stroke-linejoin:miter;stroke-miterlimit:4;stroke-dashoffset:0;stroke-opacity:1;marker:none;marker-start:none;marker-mid:none;marker-end:none;visibility:visible;display:inline;overflow:visible" d="M -262.53253,303.08163 L 262.46765,303.08163 C 269.39265,303.08163 274.96765,308.65664 274.96765,315.58164 L 274.96765,840.58181 C 274.96765,847.50682 269.39265,853.08182 262.46765,853.08182 L -262.53253,853.08182 C -269.45753,853.08182 -275.03253,847.50682 -275.03253,840.58181 L -275.03253,315.58164 C -275.03253,308.65664 -269.45753,303.08163 -262.53253,303.08163 z " id="rect5438"/>
    <path style="font-size:718.64776611px;font-style:normal;font-weight:normal;fill:#000000;fill-opacity:1;stroke:none;stroke-width:1px;stroke-linecap:butt;stroke-linejoin:miter;stroke-opacity:1;font-family:Roadgeek 2005 Arrows 1" d="M 408.46875,151 C 407.90307,151.1606 407.13712,151.54549 406.34375,152.4375 L 295.65625,313.40625 C 292.9881,318.17654 292.87543,320.13452 292.8125,324.1875 C 292.81249,329.45739 294.21916,334.01077 297.09375,337.84375 C 299.96835,341.67634 304.28206,343.59356 310.03125,343.59375 C 312.42673,343.59357 324.01053,340.24981 324.96875,340.25 L 340.9375,335.6875 L 363.21875,329.21875 L 363.21875,632.67954 L 453,632.67954 L 453,329.21875 L 476,335.6875 L 491.96875,340.25 C 492.92697,340.24981 504.51078,343.59357 506.90625,343.59375 C 512.65544,343.59356 516.96918,341.67634 519.84375,337.84375 C 522.71834,334.01077 524.15626,329.45739 524.15625,324.1875 C 524.09332,320.13452 523.9494,318.17654 521.28125,313.40625 L 410.625,152.4375 C 409.83163,151.54549 409.03443,151.1606 408.46875,151 z " id="text12508" sodipodi:nodetypes="ccccssccccccccsscccc"/>
    <rect style="opacity:1;fill:#003882;fill-opacity:1;stroke:none;stroke-width:5;stroke-miterlimit:4;stroke-dasharray:none;stroke-opacity:1" id="rect12486" width="60.000004" height="60.000004" x="-40.366341" y="712.86188" transform="matrix(0.7073091,-0.7069044,0.7069044,0.7073091,0,0)"/>
    <path style="fill:#000000;fill-rule:evenodd;stroke:#000000;stroke-width:1px;stroke-linecap:butt;stroke-linejoin:miter;stroke-opacity:1;fill-opacity:1" d="M 517.42539,574.28627 L 559.85179,531.85987 L 450.16185,422.16993 L 410.47549,469.63447 L 517.42539,574.28627 z " id="path12522" sodipodi:nodetypes="ccccc"/>
    <path style="fill:#000000;fill-rule:evenodd;stroke:#000000;stroke-width:1px;stroke-linecap:butt;stroke-linejoin:miter;stroke-opacity:1;fill-opacity:1" d="M 452.54834,329.62733 C 452.54834,329.62733 448.25861,357.13934 461.38717,410.55249 C 472.2849,454.88955 558.96791,531.50632 558.96791,531.50632 L 437.34554,437.10756 L 452.54834,329.62733 z " id="path12524" sodipodi:nodetypes="csccc"/>
  </g>
</svg>