<?xml version="1.0" encoding="UTF-8" standalone="no"?>
<!-- Created with Inkscape (http://www.inkscape.org/) -->

<svg
   xmlns:dc="http://purl.org/dc/elements/1.1/"
   xmlns:cc="http://creativecommons.org/ns#"
   xmlns:rdf="http://www.w3.org/1999/02/22-rdf-syntax-ns#"
   xmlns:svg="http://www.w3.org/2000/svg"
   xmlns="http://www.w3.org/2000/svg"
   xmlns:xlink="http://www.w3.org/1999/xlink"
   xmlns:sodipodi="http://sodipodi.sourceforge.net/DTD/sodipodi-0.dtd"
   xmlns:inkscape="http://www.inkscape.org/namespaces/inkscape"
   id="svg2211"
   sodipodi:version="0.32"
   inkscape:version="0.48.3.1 r9886"
   width="204"
   height="208"
   version="1.0"
   sodipodi:docname="Scale_of_justice_2.svg"
   inkscape:output_extension="org.inkscape.output.svg.inkscape">
  <metadata
     id="metadata2216">
    <rdf:RDF>
      <cc:Work
         rdf:about="">
        <dc:format>image/svg+xml</dc:format>
        <dc:type
           rdf:resource="http://purl.org/dc/dcmitype/StillImage" />
      </cc:Work>
    </rdf:RDF>
  </metadata>
  <defs
     id="defs2214">
    <linearGradient
       inkscape:collect="always"
       id="linearGradient5558">
      <stop
         style="stop-color:#999999;stop-opacity:1;"
         offset="0"
         id="stop5560" />
      <stop
         style="stop-color:#525252;stop-opacity:1"
         offset="1"
         id="stop5562" />
    </linearGradient>
    <linearGradient
       id="linearGradient5546">
      <stop
         style="stop-color:#d9d9d9;stop-opacity:1"
         offset="0"
         id="stop5548" />
      <stop
         id="stop5554"
         offset="0.11570371"
         style="stop-color:#b8b8b8;stop-opacity:1;" />
      <stop
         style="stop-color:#989898;stop-opacity:1;"
         offset="0.31555557"
         id="stop5556" />
      <stop
         style="stop-color:#646464;stop-opacity:1;"
         offset="1"
         id="stop5550" />
    </linearGradient>
    <linearGradient
       id="linearGradient5522">
      <stop
         style="stop-color:#9e9e9e;stop-opacity:1;"
         offset="0"
         id="stop5524" />
      <stop
         id="stop5530"
         offset="0.2"
         style="stop-color:#999999;stop-opacity:1;" />
      <stop
         style="stop-color:#6c6c6c;stop-opacity:1"
         offset="1"
         id="stop5526" />
    </linearGradient>
    <linearGradient
       inkscape:collect="always"
       id="linearGradient5483">
      <stop
         style="stop-color:#3d3d3d;stop-opacity:1;"
         offset="0"
         id="stop5485" />
      <stop
         style="stop-color:#3d3d3d;stop-opacity:0;"
         offset="1"
         id="stop5487" />
    </linearGradient>
    <linearGradient
       inkscape:collect="always"
       id="linearGradient5447">
      <stop
         style="stop-color:#dcdcdc;stop-opacity:1"
         offset="0"
         id="stop5449" />
      <stop
         style="stop-color:#434343;stop-opacity:1"
         offset="1"
         id="stop5451" />
    </linearGradient>
    <linearGradient
       id="linearGradient5410">
      <stop
         style="stop-color:#bfbfbf;stop-opacity:1"
         offset="0"
         id="stop5412" />
      <stop
         id="stop5421"
         offset="0.94999999"
         style="stop-color:#828282;stop-opacity:1;" />
      <stop
         style="stop-color:#828282;stop-opacity:1"
         offset="1"
         id="stop5414" />
    </linearGradient>
    <linearGradient
       inkscape:collect="always"
       id="linearGradient5402">
      <stop
         style="stop-color:#808080;stop-opacity:1"
         offset="0"
         id="stop5404" />
      <stop
         style="stop-color:#535353;stop-opacity:1"
         offset="1"
         id="stop5406" />
    </linearGradient>
    <linearGradient
       inkscape:collect="always"
       id="linearGradient5297">
      <stop
         style="stop-color:#5c5c5c;stop-opacity:1"
         offset="0"
         id="stop5299" />
      <stop
         style="stop-color:#6e6e6e;stop-opacity:1"
         offset="1"
         id="stop5301" />
    </linearGradient>
    <linearGradient
       id="linearGradient5281">
      <stop
         style="stop-color:#4c4c4c;stop-opacity:0;"
         offset="0"
         id="stop5283" />
      <stop
         id="stop5289"
         offset="0.44999999"
         style="stop-color:#696969;stop-opacity:1;" />
      <stop
         style="stop-color:#696969;stop-opacity:1;"
         offset="0.55000001"
         id="stop5291" />
      <stop
         style="stop-color:#4b4b4b;stop-opacity:0;"
         offset="1"
         id="stop5285" />
    </linearGradient>
    <linearGradient
       id="linearGradient5168">
      <stop
         style="stop-color:#878787;stop-opacity:1;"
         offset="0"
         id="stop5170" />
      <stop
         id="stop5176"
         offset="0.44999999"
         style="stop-color:#9b9b9b;stop-opacity:1;" />
      <stop
         style="stop-color:#9b9b9b;stop-opacity:1;"
         offset="0.55000001"
         id="stop5178" />
      <stop
         style="stop-color:#878787;stop-opacity:1"
         offset="1"
         id="stop5172" />
    </linearGradient>
    <linearGradient
       id="linearGradient4173">
      <stop
         style="stop-color:#444444;stop-opacity:1"
         offset="0"
         id="stop4175" />
      <stop
         id="stop4181"
         offset="0.44999999"
         style="stop-color:#a7a7a7;stop-opacity:1;" />
      <stop
         style="stop-color:#a7a7a7;stop-opacity:1;"
         offset="0.55000001"
         id="stop4183" />
      <stop
         style="stop-color:#444444;stop-opacity:1"
         offset="1"
         id="stop4177" />
    </linearGradient>
    <linearGradient
       id="linearGradient2222">
      <stop
         style="stop-color:#818181;stop-opacity:1"
         offset="0"
         id="stop2224" />
      <stop
         id="stop3200"
         offset="0.44999999"
         style="stop-color:#e6e6e6;stop-opacity:1;" />
      <stop
         style="stop-color:#e6e6e6;stop-opacity:1;"
         offset="0.55000001"
         id="stop3202" />
      <stop
         style="stop-color:#818181;stop-opacity:1"
         offset="1"
         id="stop2226" />
    </linearGradient>
    <linearGradient
       inkscape:collect="always"
       xlink:href="#linearGradient5281"
       id="linearGradient5381"
       gradientUnits="userSpaceOnUse"
       gradientTransform="matrix(0.9610401,0,0,0.9610402,5.1158809,8.7884998e-2)"
       x1="84.375"
       y1="191.25"
       x2="115.12907"
       y2="191.25" />
    <linearGradient
       inkscape:collect="always"
       xlink:href="#linearGradient2222"
       id="linearGradient5384"
       gradientUnits="userSpaceOnUse"
       gradientTransform="matrix(0.8352892,0,0,0.6970898,18.004109,40.213983)"
       x1="62.859951"
       y1="211.32187"
       x2="137.49564"
       y2="211.32187" />
    <linearGradient
       inkscape:collect="always"
       xlink:href="#linearGradient4173"
       id="linearGradient5386"
       gradientUnits="userSpaceOnUse"
       gradientTransform="matrix(0.8352892,0,0,0.6970898,18.004109,40.213983)"
       x1="62.859951"
       y1="213.36609"
       x2="137.73167"
       y2="213.36609" />
    <linearGradient
       inkscape:collect="always"
       xlink:href="#linearGradient2222"
       id="linearGradient5390"
       gradientUnits="userSpaceOnUse"
       gradientTransform="matrix(0.9610401,0,0,0.9610402,5.3922756,-8.3703234)"
       x1="62.859951"
       y1="211.32187"
       x2="137.49564"
       y2="211.32187" />
    <linearGradient
       inkscape:collect="always"
       xlink:href="#linearGradient4173"
       id="linearGradient5392"
       gradientUnits="userSpaceOnUse"
       gradientTransform="matrix(0.9610401,0,0,0.9610402,5.3922756,-8.3703234)"
       x1="62.859951"
       y1="213.36609"
       x2="137.73167"
       y2="213.36609" />
    <linearGradient
       inkscape:collect="always"
       xlink:href="#linearGradient5168"
       id="linearGradient5395"
       gradientUnits="userSpaceOnUse"
       gradientTransform="matrix(0.9610401,0,0,0.9610402,5.3826041,3.1134884)"
       x1="65.227562"
       y1="193.72583"
       x2="136.42601"
       y2="193.72583" />
    <linearGradient
       inkscape:collect="always"
       xlink:href="#linearGradient5402"
       id="linearGradient5408"
       x1="95.989746"
       y1="149.22176"
       x2="104.65005"
       y2="149.22176"
       gradientUnits="userSpaceOnUse"
       gradientTransform="matrix(0.9610401,0,0,0.9610402,5.5156734,4.0594995)" />
    <linearGradient
       inkscape:collect="always"
       xlink:href="#linearGradient5410"
       id="linearGradient5416"
       x1="111.6233"
       y1="107.94439"
       x2="117.21579"
       y2="107.94439"
       gradientUnits="userSpaceOnUse"
       spreadMethod="reflect"
       gradientTransform="matrix(0.9610401,0,0,0.9610402,-6.5464743,4.0594995)" />
    <linearGradient
       inkscape:collect="always"
       xlink:href="#linearGradient5297"
       id="linearGradient5430"
       gradientUnits="userSpaceOnUse"
       gradientTransform="matrix(1.0776601,0,0,0.9867354,-6.2888377,6.220097)"
       x1="100.5"
       y1="171.3125"
       x2="100.5"
       y2="172.19363" />
    <linearGradient
       inkscape:collect="always"
       xlink:href="#linearGradient5410"
       id="linearGradient5435"
       x1="99.18689"
       y1="43.591022"
       x2="104.72502"
       y2="43.591022"
       gradientUnits="userSpaceOnUse"
       spreadMethod="reflect"
       gradientTransform="matrix(0.9610401,0,0,0.9610402,5.579392,4.0594995)" />
    <radialGradient
       inkscape:collect="always"
       xlink:href="#linearGradient5447"
       id="radialGradient5453"
       cx="98.5"
       cy="5.1874995"
       fx="98.5"
       fy="5.1874995"
       r="5.5"
       gradientUnits="userSpaceOnUse"
       gradientTransform="matrix(0.757066,0.790695,-0.8837761,0.8461785,28.513592,-77.085512)" />
    <linearGradient
       inkscape:collect="always"
       xlink:href="#linearGradient5522"
       id="linearGradient5528"
       x1="98.868912"
       y1="29.5625"
       x2="104.00174"
       y2="29.5625"
       gradientUnits="userSpaceOnUse"
       spreadMethod="reflect"
       gradientTransform="matrix(0.96087716,-0.01769601,0.01769601,0.96087726,5.415324,5.8327972)" />
    <linearGradient
       inkscape:collect="always"
       xlink:href="#linearGradient5546"
       id="linearGradient5552"
       x1="-49.497475"
       y1="168.93234"
       x2="-5.0131407"
       y2="170.34656"
       gradientUnits="userSpaceOnUse"
       spreadMethod="reflect"
       gradientTransform="matrix(0.9610401,0,0,0.9610402,191.00111,50.669998)" />
    <linearGradient
       inkscape:collect="always"
       xlink:href="#linearGradient5558"
       id="linearGradient5564"
       x1="-45.608387"
       y1="131.76245"
       x2="-45.608387"
       y2="166.81534"
       gradientUnits="userSpaceOnUse"
       gradientTransform="matrix(0.9610401,0,0,0.9610402,191.00111,36.059499)" />
    <linearGradient
       inkscape:collect="always"
       xlink:href="#linearGradient5546"
       id="linearGradient5568"
       gradientUnits="userSpaceOnUse"
       gradientTransform="matrix(0.9610401,0,0,0.9610402,191.00111,50.669998)"
       spreadMethod="reflect"
       x1="-38.890873"
       y1="154.0831"
       x2="2.765034"
       y2="173.17499" />
    <linearGradient
       inkscape:collect="always"
       xlink:href="#linearGradient5558"
       id="linearGradient5588"
       gradientUnits="userSpaceOnUse"
       gradientTransform="matrix(-0.9610401,0,0,0.9610402,1.1744311,-20.9405)"
       x1="-45.608387"
       y1="131.76245"
       x2="-45.608387"
       y2="166.81534" />
    <linearGradient
       inkscape:collect="always"
       xlink:href="#linearGradient5546"
       id="linearGradient5590"
       gradientUnits="userSpaceOnUse"
       gradientTransform="matrix(0.9610401,0,0,0.9610402,93.179548,-6.330002)"
       spreadMethod="reflect"
       x1="-38.890873"
       y1="154.0831"
       x2="2.765034"
       y2="173.17499" />
    <linearGradient
       inkscape:collect="always"
       xlink:href="#linearGradient5558"
       id="linearGradient5592"
       gradientUnits="userSpaceOnUse"
       gradientTransform="matrix(0.9074747,-0.3163665,0.3163664,0.9074748,76.47152,-32.895507)"
       x1="-45.608387"
       y1="131.76245"
       x2="-45.608387"
       y2="166.81534" />
    <linearGradient
       inkscape:collect="always"
       xlink:href="#linearGradient5546"
       id="linearGradient5594"
       gradientUnits="userSpaceOnUse"
       gradientTransform="matrix(0.9610401,0,0,0.9610402,93.179548,-6.330002)"
       spreadMethod="reflect"
       x1="-49.497475"
       y1="168.93234"
       x2="-5.0131407"
       y2="170.34656" />
    <linearGradient
       inkscape:collect="always"
       xlink:href="#linearGradient5483"
       id="linearGradient3193"
       gradientUnits="userSpaceOnUse"
       gradientTransform="translate(203.02758,10.341437)"
       x1="-149.55309"
       y1="30.781363"
       x2="-160.3495"
       y2="30.781363" />
    <linearGradient
       inkscape:collect="always"
       xlink:href="#linearGradient5558"
       id="linearGradient3201"
       gradientUnits="userSpaceOnUse"
       gradientTransform="matrix(0.9074747,-0.3163665,0.3163664,0.9074748,174.29308,24.104493)"
       x1="-45.608387"
       y1="131.76245"
       x2="-45.608387"
       y2="166.81534" />
  </defs>
  <sodipodi:namedview
     inkscape:window-height="706"
     inkscape:window-width="1024"
     inkscape:pageshadow="2"
     inkscape:pageopacity="0.0"
     guidetolerance="10.0"
     gridtolerance="10.0"
     objecttolerance="10.0"
     borderopacity="1.0"
     bordercolor="#666666"
     pagecolor="#ffffff"
     id="base"
     inkscape:zoom="2"
     inkscape:cx="106.21202"
     inkscape:cy="92.37371"
     inkscape:current-layer="svg2211"
     showguides="true"
     inkscape:guide-bbox="true"
     showgrid="false"
     inkscape:window-x="-8"
     inkscape:window-y="-8"
     inkscape:window-maximized="1" />
  <path
     sodipodi:nodetypes="ccsc"
     id="path5582"
     d="m 5.1767982,128.26508 c 26.0740468,14.61593 59.0966528,13.79922 84.9447388,0 2.13671,-1.28886 -28.238923,-4.63352 -42.612969,-4.63352 -25.685229,0 -42.7989698,2.55238 -42.3317698,4.63352 z"
     style="fill:url(#linearGradient5590);fill-opacity:1;fill-rule:evenodd;stroke:#5d5d5d;stroke-width:0.5;stroke-linecap:butt;stroke-linejoin:miter;stroke-miterlimit:4;stroke-opacity:1;stroke-dasharray:none"
     inkscape:connector-curvature="0" />
  <path
     style="fill:url(#linearGradient5395);fill-opacity:1;fill-rule:evenodd;stroke:#444444;stroke-width:0.5;stroke-linecap:butt;stroke-linejoin:miter;stroke-miterlimit:4;stroke-dasharray:none;stroke-opacity:1"
     d="M 64.550317,189.22706 C 64.550317,189.22706 64.313805,185.2111 70.434833,185.12428 C 76.555863,185.03745 130.06062,185.12428 134.05448,185.12428 C 138.04834,185.12428 139.04338,187.85655 139.00866,189.24529 C 138.92411,192.6582 111.40291,199.77192 111.39364,199.62374 L 74.92793,196.70155 C 71.468727,194.21005 66.570644,194.26058 64.550317,189.22706 z "
     id="path4189"
     sodipodi:nodetypes="csssccc" />
  <path
     style="fill:url(#linearGradient5390);fill-opacity:1;fill-rule:evenodd;stroke:url(#linearGradient5392);stroke-width:0.5;stroke-linecap:butt;stroke-linejoin:miter;stroke-miterlimit:4;stroke-dasharray:none;stroke-opacity:1"
     d="M 64.575345,188.75641 L 64.575345,196.56027 C 64.312078,204.79404 139.00232,205.20039 138.98392,196.56027 L 138.98392,188.75641 C 139.05514,197.44243 64.424674,197.45589 64.575345,188.75641 z "
     id="path2220"
     sodipodi:nodetypes="ccccc" />
  <path
     style="fill:#979797;fill-opacity:1;fill-rule:evenodd;stroke:#444444;stroke-width:0.5;stroke-linecap:butt;stroke-linejoin:miter;stroke-miterlimit:4;stroke-dasharray:none;stroke-opacity:1"
     d="M 69.43276,183.39714 C 69.531238,181.97459 79.507375,178.28616 100.75866,178.28616 C 122.12489,178.28616 134.12586,181.22252 134.12586,183.50458 C 134.12586,184.05712 127.55679,188.53883 127.55679,188.53883 L 100.08333,191.17874 L 69.847161,186.26728 L 69.43276,183.39714 z "
     id="path5269"
     sodipodi:nodetypes="csscccc" />
  <path
     sodipodi:nodetypes="ccccc"
     id="path5263"
     d="M 69.443147,183.19972 L 69.443147,188.86024 C 69.561624,194.05118 134.13145,194.78005 134.11547,188.86024 L 134.11547,183.19972 C 134.09055,188.80553 69.485846,188.72848 69.443147,183.19972 z "
     style="fill:url(#linearGradient5384);fill-opacity:1;fill-rule:evenodd;stroke:url(#linearGradient5386);stroke-width:0.5;stroke-linecap:butt;stroke-linejoin:miter;stroke-miterlimit:4;stroke-dasharray:none;stroke-opacity:1" />
  <path
     id="path5271"
     style="fill:none;fill-opacity:1;fill-rule:evenodd;stroke:url(#linearGradient5381);stroke-width:0.5;stroke-linecap:round;stroke-linejoin:miter;stroke-miterlimit:4;stroke-dasharray:none;stroke-opacity:1"
     d="M 116.2962,183.76668 C 116.2962,183.76668 107.16631,182.80564 105.00397,181.36408 C 102.84163,179.92252 103.32215,179.80239 101.09976,179.80239 C 98.87735,179.80239 99.35787,179.92252 97.195533,181.36408 C 95.033192,182.80564 85.903311,183.76668 85.903311,183.76668"
     sodipodi:nodetypes="cscsc" />
  <path
     style="fill:#7c7c7c;fill-opacity:1;fill-rule:evenodd;stroke:url(#linearGradient5430);stroke-width:0.5;stroke-linecap:butt;stroke-linejoin:round;stroke-miterlimit:4;stroke-dasharray:none;stroke-opacity:1"
     d="M 93.92982,175.22521 L 109.62693,175.24907 C 109.74267,175.86212 104.62249,180.37221 102.95674,180.28427 L 99.74098,180.26506 C 97.851344,180.32452 93.912218,175.478 93.92982,175.22521 z "
     id="path5293"
     sodipodi:nodetypes="ccccc" />
  <g
     id="g5493"
     transform="matrix(0.82799347,0.48787795,-0.487878,0.82799355,35.401493,-40.186074)">
    <path
       id="rect5433"
       d="m 99.521447,19.37316 c -0.26388,0 -0.5306,0.01207 -0.78125,0.03125 -0.29798,0.0228 -0.57015,0.07758 -0.84375,0.125 -1.63154,0.282772 -2.78125,0.958114 -2.78125,1.78125 l 0,4.34375 c -4.9359,-2.86236 -11.0378,-4.40625 -15.40625,-4.40625 -5.83363,0 -8.87123,0.688272 -15.875,4.5625 -5.82377,3.221495 -7.43414,4.602633 -11.5,3.71875 -4.06586,-0.883885 -6.00368,-2.980393 -8.125,-3.6875 -2.12131,-0.707106 -5.30047,1.571628 -5.5,2.25 -0.22098,0.751301 -0.91698,-0.18842 -1.09375,-0.71875 -0.17679,-0.530331 -4.17678,1.742037 -4,3.15625 0.17677,1.414213 3.61622,5.290053 4.125,3.625 0.48615,-1.590989 1.16253,-1.743717 1.78125,-1.125 0.62501,0.625 2.92769,1.900126 3.28125,4.374999 0.35355,2.474871 -0.89737,3.175857 -1.78125,2.46875 -0.88388,-0.707107 -1.22948,-1.042893 -1.40625,-1.75 -0.17677,-0.707105 -3.87408,1.06342 -3.34375,1.59375 0.53033,0.53033 1.57506,3.865197 2.8125,4.21875 1.23743,0.353552 1.25,1.949143 1.25,2.65625 0,0.707107 2.125,0.551777 2.125,0.375 0,-0.176778 0.15625,-2.5 0.15625,-2.5 0,10e-7 4.08302,-0.342226 3.90625,-5.46875 -0.17678,-5.126523 -3.01869,-6.708946 -1.78125,-7.062499 1.23744,-0.353553 7.41545,2.823223 12.71875,3 5.3033,0.176778 12.48531,-5.125 22.03125,-5.125 7.08304,1e-6 13.01947,3.292669 15.625,5 l 0,1.718749 c 0,0.823136 1.14971,1.498478 2.78125,1.78125 0.2736,0.04742 0.54577,0.102198 0.84375,0.125 0.25065,0.01918 0.51737,0.03125 0.78125,0.03125 0.04188,5.07e-4 0.08284,0 0.125,0 l 0.21875,0 c 0.340543,0 0.681343,3.03e-4 1.000003,-0.03125 2.01496,-0.17938 3.53125,-0.963633 3.53125,-1.90625 l 0,-1.718749 c 2.60553,-1.707331 8.54196,-4.999999 15.625,-5 9.54594,0 16.72795,5.301778 22.03125,5.125 5.3033,-0.176777 11.48131,-3.353553 12.71875,-3 1.23744,0.353553 -1.60447,1.935976 -1.78125,7.062499 -0.17677,5.126524 3.90625,5.468751 3.90625,5.46875 0,0 0.15625,2.323222 0.15625,2.5 0,0.176777 2.125,0.332107 2.125,-0.375 0,-0.707107 0.0126,-2.302698 1.25,-2.65625 1.23744,-0.353553 2.28217,-3.68842 2.8125,-4.21875 0.53033,-0.53033 -3.16698,-2.300855 -3.34375,-1.59375 -0.17677,0.707107 -0.52237,1.042893 -1.40625,1.75 -0.88388,0.707107 -2.1348,0.0061 -1.78125,-2.46875 0.35356,-2.474873 2.65624,-3.749999 3.28125,-4.374999 0.61872,-0.618717 1.26385,-0.465989 1.75,1.125 0.50878,1.665053 3.97948,-2.210787 4.15625,-3.625 0.17678,-1.414213 -3.82321,-3.686581 -4,-3.15625 -0.17677,0.53033 -0.87277,1.470051 -1.09375,0.71875 -0.19953,-0.678372 -3.37869,-2.957106 -5.5,-2.25 -2.12132,0.707107 -4.05914,2.803615 -8.125,3.6875 -4.06586,0.883883 -5.67623,-0.497255 -11.5,-3.71875 -7.00376,-3.874228 -10.07262,-4.5625 -15.90625,-4.5625 -4.36845,0 -10.4391,1.54389 -15.375,4.40625 l 0,-4.34375 c 0,-0.942617 -1.51629,-1.72687 -3.53125,-1.90625 -0.0308,-0.0027 -0.0627,0.0025 -0.0937,0 -0.24893,-0.0221 -0.51912,-0.02808 -0.781253,-0.03125 l -0.125,0 -0.34375,0 z"
       style="fill:#808080;fill-opacity:1;stroke:#535353;stroke-width:0.26013482;stroke-linecap:round;stroke-linejoin:round;stroke-miterlimit:4;stroke-opacity:1;stroke-dasharray:none"
       inkscape:connector-curvature="0" />
    <path
       sodipodi:nodetypes="cssc"
       id="path5473"
       d="m 41.895621,28.394877 c 0,0 6.805899,3.712311 13.52341,3.712311 6.71752,0 14.4957,-6.540739 23.511311,-6.540739 7.78093,0 14.6175,4.698125 18.58161,7.172999"
       style="fill:none;stroke:url(#linearGradient3193);stroke-width:0.52026963;stroke-linecap:butt;stroke-linejoin:miter;stroke-miterlimit:4;stroke-opacity:1;stroke-dasharray:none"
       inkscape:connector-curvature="0" />
    <use
       height="208"
       width="204"
       transform="matrix(-1,0,0,1,199.51165,5.0894033e-7)"
       id="use5491"
       xlink:href="#path5473"
       y="0"
       x="0" />
  </g>
  <path
     style="fill:#6b6b6b;fill-opacity:1;fill-rule:evenodd;stroke:#585858;stroke-width:0.5;stroke-linecap:butt;stroke-linejoin:miter;stroke-miterlimit:4;stroke-dasharray:none;stroke-opacity:1"
     d="M 98.46647,23.147014 L 98.46647,19.710687 C 100.85436,18.672312 102.70485,17.395861 105.09216,19.710687 L 105.09216,22.812209 L 98.46647,23.147014 z "
     id="path5460"
     sodipodi:nodetypes="ccccc" />
  <path
     style="fill:url(#linearGradient5528);fill-opacity:1;stroke:#535353;stroke-width:0.5;stroke-linecap:round;stroke-linejoin:round;stroke-miterlimit:4;stroke-opacity:1;stroke-dasharray:none"
     d="m 101.37123,22.347327 c -0.26321,0.0049 -0.52902,0.02177 -0.77868,0.04549 -0.29679,0.0282 -0.56725,0.08778 -0.839283,0.140058 -1.622136,0.311743 -2.756487,1.005817 -2.741377,1.826033 l 0.07971,4.328382 0.168028,9.123852 0.03154,1.712667 c 0.01511,0.820224 1.174243,1.472057 2.806758,1.723858 0.27377,0.04222 0.54624,0.09181 0.84387,0.10906 0.25036,0.01451 0.51661,0.02163 0.77982,0.01679 0.0418,-2.59e-4 0.0826,-0.0015 0.12467,-0.0023 l 0.21818,-0.004 c 0.33966,-0.0063 0.67959,-0.01221 0.99686,-0.04951 2.00646,-0.215759 3.50446,-1.025091 3.48716,-1.964372 l -0.0315,-1.712667 -0.16802,-9.123851 -0.0797,-4.328382 c -0.0173,-0.939275 -1.54407,-1.6929 -3.55712,-1.834633 -0.0307,-0.0022 -0.0625,0.0036 -0.0935,0.0017 -0.2487,-0.01745 -0.51831,-0.01844 -0.77982,-0.01679 l -0.12468,0.0023 -0.34285,0.0063 z"
     id="path5471"
     sodipodi:nodetypes="cssccccsssccsccccssccc"
     inkscape:connector-curvature="0" />
  <path
     style="fill:url(#linearGradient5416);fill-opacity:1;fill-rule:evenodd;stroke:url(#linearGradient5408);stroke-width:0.69999999;stroke-linecap:butt;stroke-linejoin:miter;stroke-miterlimit:4;stroke-dasharray:none;stroke-opacity:1"
     d="M 97.765673,172.44135 L 97.765673,47.275259 L 105.79295,47.232787 L 105.75048,173.29081 L 97.765673,172.44135 z "
     id="path5400"
     sodipodi:nodetypes="ccccc" />
  <use
     x="0"
     y="0"
     xlink:href="#path5293"
     id="use5398"
     transform="matrix(1,0,0,-1,0,350.45232)"
     width="204"
     height="208" />
  <path
     style="fill:url(#linearGradient5435);fill-opacity:1;fill-rule:evenodd;stroke:#4a4a4a;stroke-width:0.5;stroke-linecap:round;stroke-linejoin:round;stroke-miterlimit:4;stroke-dasharray:none;stroke-opacity:1"
     d="M 97.574552,47.087035 L 105.98407,47.087035 C 105.98407,47.087035 104.46901,44.817413 101.66867,44.817413 C 98.86832,44.817413 97.574552,46.974802 97.574552,47.087035 z "
     id="path5424"
     sodipodi:nodetypes="ccsc" />
  <use
     x="0"
     y="0"
     xlink:href="#path5424"
     id="use5426"
     transform="matrix(1,0,0,1.0630719,0,-7.4275914)"
     width="204"
     height="208" />
  <use
     x="0"
     y="0"
     xlink:href="#use5426"
     id="use5428"
     transform="matrix(1,0,0,-1,0,85.125731)"
     width="204"
     height="208" />
  <path
     style="fill:#787878;fill-opacity:1;fill-rule:evenodd;stroke:#686868;stroke-width:0.5;stroke-linecap:butt;stroke-linejoin:round;stroke-miterlimit:4;stroke-dasharray:none;stroke-opacity:1"
     d="M 99.47184,14.616368 L 99.47184,17.169131 C 99.47184,17.169131 99.31278,17.250915 99.29164,17.259228 C 99.2858,17.261526 99.2389,17.256337 99.23158,17.259228 C 98.24191,17.434814 96.85635,17.779869 96.408521,18.280333 C 96.229023,18.480929 96.276235,18.615976 96.408521,18.790886 C 96.672486,19.139903 98.99633,20.232446 101.60414,20.232446 C 101.6526,20.232446 101.70523,20.233597 101.75431,20.232446 C 101.81334,20.234097 101.87635,20.232446 101.9345,20.232446 C 104.54232,20.232446 106.85902,19.140007 107.13012,18.790886 C 107.34537,18.513692 107.27871,18.463583 107.13012,18.280333 C 106.84935,17.934071 105.29014,17.432721 104.30707,17.259228 C 104.30341,17.257783 104.28033,17.260526 104.27703,17.259228 C 104.2499,17.248536 104.06681,17.169131 104.06681,17.169131 L 104.06681,14.616368 L 103.73645,14.616368 L 99.83223,14.616368 L 99.47184,14.616368 z "
     id="path5455"
     sodipodi:nodetypes="ccsssssssssssccccc" />
  <path
     sodipodi:type="arc"
     style="opacity:1;fill:url(#radialGradient5453);fill-opacity:1;stroke:none;stroke-width:0.5;stroke-linecap:round;stroke-linejoin:round;stroke-miterlimit:4;stroke-dasharray:none;stroke-opacity:1"
     id="path5437"
     sodipodi:cx="99.75"
     sodipodi:cy="6.8749995"
     sodipodi:rx="5.25"
     sodipodi:ry="5.25"
     d="M 105 6.8749995 A 5.25 5.25 0 1 1  94.5,6.8749995 A 5.25 5.25 0 1 1  105 6.8749995 z"
     transform="matrix(1.0553437,0,0,1.0553439,-3.4912204,3.3407912)" />
  <path
     style="fill:#838383;fill-opacity:1;fill-rule:evenodd;stroke:#535353;stroke-width:0.39999998;stroke-linecap:butt;stroke-linejoin:miter;stroke-miterlimit:4;stroke-opacity:1;stroke-dasharray:none"
     d="m 144.00025,74.41101 c -0.18342,1.621755 -0.21643,3.243511 0,4.865266 0,-10e-7 -3.06331,-0.04272 -3.06331,0.660715 0,0.703434 0.3835,13.441757 -0.72078,14.715928 -1.10429,1.27417 -1.80284,1.009916 -2.31251,0.330358 -0.50966,-0.679556 -2.02249,-0.580039 -2.19237,-0.24026 -0.16989,0.339779 -0.54246,2.422586 0.54059,3.12338 1.51117,0.977827 5.27629,0.949699 5.61607,-2.702925 0.33978,-3.652623 0.32997,-6.787347 1.74189,-6.787347 0.50967,0 0.48052,1.740269 0.48052,3.693999 0,1.95373 -0.17078,2.458396 -0.51055,2.88312 -0.33979,0.424721 -0.25484,4.504876 0,4.504876 0.25483,2e-6 2.29792,0 2.55276,0 0.25483,2e-6 0.33978,-4.080153 0,-4.504876 -0.33979,-0.424726 -0.51055,-0.929391 -0.51055,-2.88312 0,-1.953729 -0.23938,-3.693999 0.27029,-3.693999 1.53203,-10e-7 1.34203,2.804365 1.68182,6.456989 0.33978,3.652624 3.85711,3.748026 5.55601,3.153413 1.69889,-0.594611 0.87442,-3.046245 0.72078,-3.393673 -0.22995,-0.519974 -1.23221,-0.07891 -1.86201,0.300325 -0.72771,0.438187 -1.44849,0.943814 -2.55277,-0.330357 -1.10428,-1.27417 -1.2013,-13.922396 -1.2013,-14.625831 0,-0.703437 -2.79302,-0.660715 -2.79302,-0.660715 -0.0707,-1.621755 -0.2993,-3.243511 0,-4.865266 -0.73007,0.399292 -1.10583,0.231659 -1.44156,0 z m 0.78085,5.856339 c 0.81526,0 1.47159,0.143589 1.47159,0.330357 l 0,2.282471 c 0,0.186766 -0.65633,0.330357 -1.47159,0.330357 -0.81527,0 -1.4716,-0.143589 -1.4716,-0.330357 l 0,-2.282471 c 0,-0.186766 0.65633,-0.330357 1.4716,-0.330357 z"
     id="path5502"
     sodipodi:nodetypes="ccssssssssssssssssssssccccccsccc"
     inkscape:connector-curvature="0" />
  <path
     sodipodi:nodetypes="ccsc"
     id="path5566"
     d="m 102.99836,185.26508 c 26.07405,14.61593 59.09665,13.79922 84.94474,0 2.13671,-1.28886 -28.23892,-4.63352 -42.61297,-4.63352 -25.68523,0 -42.79897,2.55238 -42.33177,4.63352 z"
     style="fill:url(#linearGradient5568);fill-opacity:1;fill-rule:evenodd;stroke:#5d5d5d;stroke-width:0.5;stroke-linecap:butt;stroke-linejoin:miter;stroke-miterlimit:4;stroke-opacity:1;stroke-dasharray:none"
     inkscape:connector-curvature="0" />
  <path
     id="use5532"
     d="m 146.32283,94.774141 c 1.50466,6.884669 -1.28249,4.114702 -1.3815,5.446509 l -0.15016,94.96174"
     style="fill:none;stroke:url(#linearGradient5564);stroke-width:0.69999999;stroke-linecap:round;stroke-linejoin:miter;stroke-miterlimit:4;stroke-opacity:1;stroke-dasharray:none"
     sodipodi:nodetypes="ccc"
     inkscape:connector-curvature="0" />
  <use
     x="0"
     y="0"
     xlink:href="#use5570"
     id="use5572"
     transform="matrix(-1,0,0,1,289.81265,0)"
     width="204"
     height="208" />
  <use
     x="0"
     y="0"
     xlink:href="#path5502"
     id="use5512"
     transform="matrix(-1,0,0,1,192.06824,-57)"
     width="204"
     height="208" />
  <path
     sodipodi:nodetypes="cscc"
     style="fill:none;stroke:url(#linearGradient3201);stroke-width:0.69999999;stroke-linecap:round;stroke-linejoin:miter;stroke-miterlimit:4;stroke-opacity:1;stroke-dasharray:none"
     d="m 150.53198,95.391468 c -0.21412,0.06486 -0.25536,0.592244 -0.11072,1.157215 0.14464,0.564971 0.45392,1.167525 0.74971,2.125978 10.1119,30.411119 21.17202,60.506069 31.81377,90.735209"
     id="use5570"
     inkscape:connector-curvature="0" />
  <path
     style="fill:url(#linearGradient5552);fill-opacity:1;fill-rule:evenodd;stroke:#5d5d5d;stroke-width:0.5;stroke-linecap:butt;stroke-linejoin:miter;stroke-miterlimit:4;stroke-opacity:1;stroke-dasharray:none"
     d="m 102.99836,185.49868 c 28.4525,12.57725 59.09665,10.06164 84.94474,0 -0.58152,2.93715 -15.18256,20.95712 -43.63231,20.95609 -28.06311,-0.001 -41.31243,-18.91741 -41.31243,-20.95609 z"
     id="path5536"
     sodipodi:nodetypes="ccsc"
     inkscape:connector-curvature="0" />
  <path
     id="path5578"
     d="m 45.852715,37.774141 c -1.504662,6.884672 1.282489,4.114702 1.381495,5.446507 l 0.150162,94.961742"
     style="fill:none;stroke:url(#linearGradient5588);stroke-width:0.69999999;stroke-linecap:round;stroke-linejoin:miter;stroke-miterlimit:4;stroke-opacity:1;stroke-dasharray:none"
     sodipodi:nodetypes="ccc"
     inkscape:connector-curvature="0" />
  <use
     x="0"
     y="0"
     xlink:href="#use5570"
     id="use5580"
     transform="matrix(-1,0,0,1,191.99109,-57)"
     width="204"
     height="208" />
  <path
     sodipodi:nodetypes="cscc"
     style="fill:none;stroke:url(#linearGradient5592);stroke-width:0.69999999;stroke-linecap:round;stroke-linejoin:miter;stroke-miterlimit:4;stroke-opacity:1;stroke-dasharray:none"
     d="m 52.710418,38.391468 c -0.214119,0.06486 -0.255358,0.592244 -0.110721,1.157215 0.144636,0.564971 0.453918,1.167525 0.749707,2.125978 10.111901,30.411119 21.172021,60.506069 31.813772,90.735209"
     id="path5584"
     inkscape:connector-curvature="0" />
  <path
     style="fill:url(#linearGradient5594);fill-opacity:1;fill-rule:evenodd;stroke:#5d5d5d;stroke-width:0.5;stroke-linecap:butt;stroke-linejoin:miter;stroke-miterlimit:4;stroke-opacity:1;stroke-dasharray:none"
     d="m 5.1767982,128.49868 c 28.4524958,12.57725 59.0966528,10.06164 84.9447388,0 -0.581515,2.93715 -15.182559,20.95712 -43.632306,20.95609 C 18.42612,149.45376 5.1767982,130.53736 5.1767982,128.49868 z"
     id="path5586"
     sodipodi:nodetypes="ccsc"
     inkscape:connector-curvature="0" />
</svg>
